<svg width="106" height="24" viewBox="0 0 106 24" fill="none" xmlns="http://www.w3.org/2000/svg">
<path d="M16.5 6H13.5C12.9477 6 12.5 6.44772 12.5 7V10H16.5C16.6137 9.99748 16.7216 10.0504 16.7892 10.1419C16.8568 10.2334 16.8758 10.352 16.84 10.46L16.1 12.66C16.0318 12.8619 15.8431 12.9984 15.63 13H12.5V20.5C12.5 20.7761 12.2761 21 12 21H9.5C9.22386 21 9 20.7761 9 20.5V13H7.5C7.22386 13 7 12.7761 7 12.5V10.5C7 10.2239 7.22386 10 7.5 10H9V7C9 4.79086 10.7909 3 13 3H16.5C16.7761 3 17 3.22386 17 3.5V5.5C17 5.77614 16.7761 6 16.5 6Z" fill="black"/>
<path d="M33.136 16V4.8H40.16V6.176H34.832V9.712H39.248V11.072H34.832V16H33.136ZM43.8381 16.192C43.1661 16.192 42.6115 16.08 42.1741 15.856C41.7368 15.632 41.4115 15.3387 41.1981 14.976C40.9848 14.6027 40.8781 14.1973 40.8781 13.76C40.8781 12.992 41.1768 12.384 41.7741 11.936C42.3715 11.488 43.2248 11.264 44.3341 11.264H46.4141V11.12C46.4141 10.5013 46.2435 10.0373 45.9021 9.728C45.5715 9.41867 45.1395 9.264 44.6061 9.264C44.1368 9.264 43.7261 9.38133 43.3741 9.616C43.0328 9.84 42.8248 10.176 42.7501 10.624H41.0541C41.1075 10.048 41.2995 9.55733 41.6301 9.152C41.9715 8.736 42.3981 8.42133 42.9101 8.208C43.4328 7.984 44.0035 7.872 44.6221 7.872C45.7315 7.872 46.5901 8.16533 47.1981 8.752C47.8061 9.328 48.1101 10.1173 48.1101 11.12V16H46.6381L46.4941 14.64C46.2701 15.0773 45.9448 15.4453 45.5181 15.744C45.0915 16.0427 44.5315 16.192 43.8381 16.192ZM44.1741 14.816C44.6328 14.816 45.0168 14.7093 45.3261 14.496C45.6461 14.272 45.8915 13.9787 46.0621 13.616C46.2435 13.2533 46.3555 12.8533 46.3981 12.416H44.5101C43.8381 12.416 43.3581 12.5333 43.0701 12.768C42.7928 13.0027 42.6541 13.296 42.6541 13.648C42.6541 14.0107 42.7875 14.2987 43.0541 14.512C43.3315 14.7147 43.7048 14.816 44.1741 14.816ZM53.8476 16.192C53.069 16.192 52.3703 16.016 51.7516 15.664C51.1436 15.312 50.6636 14.8267 50.3116 14.208C49.9703 13.5787 49.7996 12.8533 49.7996 12.032C49.7996 11.2107 49.9703 10.4907 50.3116 9.872C50.6636 9.24267 51.1436 8.752 51.7516 8.4C52.3703 8.048 53.069 7.872 53.8476 7.872C54.829 7.872 55.6503 8.128 56.3116 8.64C56.9836 9.152 57.4156 9.84533 57.6076 10.72H55.8316C55.725 10.2827 55.4903 9.94133 55.1276 9.696C54.765 9.45067 54.3383 9.328 53.8476 9.328C53.4316 9.328 53.0476 9.43467 52.6956 9.648C52.3436 9.85067 52.061 10.1547 51.8476 10.56C51.6343 10.9547 51.5276 11.4453 51.5276 12.032C51.5276 12.6187 51.6343 13.1147 51.8476 13.52C52.061 13.9147 52.3436 14.2187 52.6956 14.432C53.0476 14.6453 53.4316 14.752 53.8476 14.752C54.3383 14.752 54.765 14.6293 55.1276 14.384C55.4903 14.1387 55.725 13.792 55.8316 13.344H57.6076C57.4263 14.1973 56.9996 14.8853 56.3276 15.408C55.6556 15.9307 54.829 16.192 53.8476 16.192ZM63.159 16.192C62.3803 16.192 61.687 16.0213 61.079 15.68C60.4817 15.328 60.0123 14.8427 59.671 14.224C59.3297 13.6053 59.159 12.8853 59.159 12.064C59.159 11.232 59.3243 10.5013 59.655 9.872C59.9963 9.24267 60.4657 8.752 61.063 8.4C61.671 8.048 62.375 7.872 63.175 7.872C63.9537 7.872 64.631 8.048 65.207 8.4C65.783 8.74133 66.231 9.2 66.551 9.776C66.871 10.352 67.031 10.9867 67.031 11.68C67.031 11.7867 67.0257 11.904 67.015 12.032C67.015 12.1493 67.0097 12.2827 66.999 12.432H60.823C60.8763 13.2 61.127 13.7867 61.575 14.192C62.0337 14.5867 62.5617 14.784 63.159 14.784C63.639 14.784 64.039 14.6773 64.359 14.464C64.6897 14.24 64.935 13.9413 65.095 13.568H66.791C66.5777 14.3147 66.151 14.9387 65.511 15.44C64.8817 15.9413 64.0977 16.192 63.159 16.192ZM63.159 9.264C62.5937 9.264 62.0923 9.43467 61.655 9.776C61.2177 10.1067 60.951 10.608 60.855 11.28H65.335C65.303 10.6613 65.0843 10.1707 64.679 9.808C64.2737 9.44533 63.767 9.264 63.159 9.264ZM73.2548 16.192C72.6361 16.192 72.0868 16.0693 71.6068 15.824C71.1374 15.5787 70.7641 15.232 70.4868 14.784L70.3108 16H68.7908V4.48H70.4868V9.296C70.7428 8.92267 71.0948 8.592 71.5428 8.304C71.9908 8.016 72.5668 7.872 73.2708 7.872C74.0388 7.872 74.7161 8.05333 75.3028 8.416C75.8894 8.77867 76.3481 9.27467 76.6788 9.904C77.0201 10.5333 77.1908 11.248 77.1908 12.048C77.1908 12.848 77.0201 13.5627 76.6788 14.192C76.3481 14.8107 75.8894 15.3013 75.3028 15.664C74.7161 16.016 74.0334 16.192 73.2548 16.192ZM72.9668 14.72C73.6921 14.72 74.2894 14.4747 74.7588 13.984C75.2281 13.4827 75.4628 12.832 75.4628 12.032C75.4628 11.5093 75.3561 11.0453 75.1428 10.64C74.9294 10.2347 74.6361 9.92 74.2628 9.696C73.8894 9.46133 73.4574 9.344 72.9668 9.344C72.2414 9.344 71.6441 9.59467 71.1748 10.096C70.7161 10.5973 70.4868 11.2427 70.4868 12.032C70.4868 12.832 70.7161 13.4827 71.1748 13.984C71.6441 14.4747 72.2414 14.72 72.9668 14.72ZM82.7371 16.192C81.9798 16.192 81.2971 16.0213 80.6891 15.68C80.0918 15.328 79.6171 14.8427 79.2651 14.224C78.9131 13.5947 78.7371 12.864 78.7371 12.032C78.7371 11.2 78.9131 10.4747 79.2651 9.856C79.6278 9.22667 80.1131 8.74133 80.7211 8.4C81.3291 8.048 82.0065 7.872 82.7531 7.872C83.5105 7.872 84.1878 8.048 84.7851 8.4C85.3931 8.74133 85.8731 9.22667 86.2251 9.856C86.5878 10.4747 86.7691 11.2 86.7691 12.032C86.7691 12.864 86.5878 13.5947 86.2251 14.224C85.8731 14.8427 85.3931 15.328 84.7851 15.68C84.1771 16.0213 83.4945 16.192 82.7371 16.192ZM82.7371 14.736C83.1425 14.736 83.5158 14.6347 83.8571 14.432C84.2091 14.2293 84.4918 13.9307 84.7051 13.536C84.9185 13.1307 85.0251 12.6293 85.0251 12.032C85.0251 11.4347 84.9185 10.9387 84.7051 10.544C84.5025 10.1387 84.2251 9.83467 83.8731 9.632C83.5318 9.42933 83.1585 9.328 82.7531 9.328C82.3478 9.328 81.9691 9.42933 81.6171 9.632C81.2758 9.83467 80.9985 10.1387 80.7851 10.544C80.5718 10.9387 80.4651 11.4347 80.4651 12.032C80.4651 12.6293 80.5718 13.1307 80.7851 13.536C80.9985 13.9307 81.2758 14.2293 81.6171 14.432C81.9585 14.6347 82.3318 14.736 82.7371 14.736ZM92.3153 16.192C91.5579 16.192 90.8753 16.0213 90.2673 15.68C89.6699 15.328 89.1953 14.8427 88.8433 14.224C88.4913 13.5947 88.3153 12.864 88.3153 12.032C88.3153 11.2 88.4913 10.4747 88.8433 9.856C89.2059 9.22667 89.6913 8.74133 90.2993 8.4C90.9073 8.048 91.5846 7.872 92.3313 7.872C93.0886 7.872 93.7659 8.048 94.3633 8.4C94.9713 8.74133 95.4513 9.22667 95.8033 9.856C96.1659 10.4747 96.3472 11.2 96.3472 12.032C96.3472 12.864 96.1659 13.5947 95.8033 14.224C95.4513 14.8427 94.9713 15.328 94.3633 15.68C93.7553 16.0213 93.0726 16.192 92.3153 16.192ZM92.3153 14.736C92.7206 14.736 93.0939 14.6347 93.4353 14.432C93.7873 14.2293 94.0699 13.9307 94.2833 13.536C94.4966 13.1307 94.6033 12.6293 94.6033 12.032C94.6033 11.4347 94.4966 10.9387 94.2833 10.544C94.0806 10.1387 93.8033 9.83467 93.4513 9.632C93.1099 9.42933 92.7366 9.328 92.3313 9.328C91.9259 9.328 91.5473 9.42933 91.1953 9.632C90.8539 9.83467 90.5766 10.1387 90.3633 10.544C90.1499 10.9387 90.0433 11.4347 90.0433 12.032C90.0433 12.6293 90.1499 13.1307 90.3633 13.536C90.5766 13.9307 90.8539 14.2293 91.1953 14.432C91.5366 14.6347 91.9099 14.736 92.3153 14.736ZM98.1814 16V4.48H99.8774V11.344L102.917 8.064H104.949L101.573 11.664L105.445 16H103.301L99.8774 11.936V16H98.1814Z" fill="black"/>
</svg>
