<svg width="109" height="24" viewBox="0 0 109 24" fill="none" xmlns="http://www.w3.org/2000/svg">
<path fill-rule="evenodd" clip-rule="evenodd" d="M16 3H8C5.23858 3 3 5.23858 3 8V16C3 18.7614 5.23858 21 8 21H16C18.7614 21 21 18.7614 21 16V8C21 5.23858 18.7614 3 16 3ZM19.25 16C19.2445 17.7926 17.7926 19.2445 16 19.25H8C6.20735 19.2445 4.75549 17.7926 4.75 16V8C4.75549 6.20735 6.20735 4.75549 8 4.75H16C17.7926 4.75549 19.2445 6.20735 19.25 8V16ZM16.75 8.25C17.3023 8.25 17.75 7.80228 17.75 7.25C17.75 6.69772 17.3023 6.25 16.75 6.25C16.1977 6.25 15.75 6.69772 15.75 7.25C15.75 7.80228 16.1977 8.25 16.75 8.25ZM12 7.5C9.51472 7.5 7.5 9.51472 7.5 12C7.5 14.4853 9.51472 16.5 12 16.5C14.4853 16.5 16.5 14.4853 16.5 12C16.5027 10.8057 16.0294 9.65957 15.1849 8.81508C14.3404 7.97059 13.1943 7.49734 12 7.5ZM9.25 12C9.25 13.5188 10.4812 14.75 12 14.75C13.5188 14.75 14.75 13.5188 14.75 12C14.75 10.4812 13.5188 9.25 12 9.25C10.4812 9.25 9.25 10.4812 9.25 12Z" fill="white"/>
<path d="M38.352 5.242V15H37.078V5.242H38.352ZM44.2613 7.188C45.1946 7.188 45.9506 7.47267 46.5293 8.042C47.108 8.602 47.3973 9.414 47.3973 10.478V15H46.1373V10.66C46.1373 9.89467 45.946 9.31133 45.5633 8.91C45.1806 8.49933 44.658 8.294 43.9953 8.294C43.3233 8.294 42.7866 8.504 42.3853 8.924C41.9933 9.344 41.7973 9.95533 41.7973 10.758V15H40.5233V7.328H41.7973V8.42C42.0493 8.028 42.39 7.72467 42.8193 7.51C43.258 7.29533 43.7386 7.188 44.2613 7.188ZM52.1944 15.126C51.6064 15.126 51.0791 15.028 50.6124 14.832C50.1457 14.6267 49.7771 14.3467 49.5064 13.992C49.2357 13.628 49.0864 13.2127 49.0584 12.746H50.3744C50.4117 13.1287 50.5891 13.4413 50.9064 13.684C51.2331 13.9267 51.6577 14.048 52.1804 14.048C52.6657 14.048 53.0484 13.9407 53.3284 13.726C53.6084 13.5113 53.7484 13.2407 53.7484 12.914C53.7484 12.578 53.5991 12.3307 53.3004 12.172C53.0017 12.004 52.5397 11.8407 51.9144 11.682C51.3451 11.5327 50.8784 11.3833 50.5144 11.234C50.1597 11.0753 49.8517 10.8467 49.5904 10.548C49.3384 10.24 49.2124 9.83867 49.2124 9.344C49.2124 8.952 49.3291 8.59267 49.5624 8.266C49.7957 7.93933 50.1271 7.68267 50.5564 7.496C50.9857 7.3 51.4757 7.202 52.0264 7.202C52.8757 7.202 53.5617 7.41667 54.0844 7.846C54.6071 8.27533 54.8871 8.86333 54.9244 9.61H53.6504C53.6224 9.20867 53.4591 8.88667 53.1604 8.644C52.8711 8.40133 52.4791 8.28 51.9844 8.28C51.5271 8.28 51.1631 8.378 50.8924 8.574C50.6217 8.77 50.4864 9.02667 50.4864 9.344C50.4864 9.596 50.5657 9.806 50.7244 9.974C50.8924 10.1327 51.0977 10.2633 51.3404 10.366C51.5924 10.4593 51.9377 10.5667 52.3764 10.688C52.9271 10.8373 53.3751 10.9867 53.7204 11.136C54.0657 11.276 54.3597 11.4907 54.6024 11.78C54.8544 12.0693 54.9851 12.4473 54.9944 12.914C54.9944 13.334 54.8777 13.712 54.6444 14.048C54.4111 14.384 54.0797 14.65 53.6504 14.846C53.2304 15.0327 52.7451 15.126 52.1944 15.126ZM58.3468 8.378V12.9C58.3468 13.2733 58.4262 13.5393 58.5848 13.698C58.7435 13.8473 59.0188 13.922 59.4108 13.922H60.3488V15H59.2008C58.4915 15 57.9595 14.8367 57.6048 14.51C57.2502 14.1833 57.0728 13.6467 57.0728 12.9V8.378H56.0788V7.328H57.0728V5.396H58.3468V7.328H60.3488V8.378H58.3468ZM61.4165 11.136C61.4165 10.352 61.5751 9.666 61.8925 9.078C62.2098 8.48067 62.6438 8.01867 63.1945 7.692C63.7545 7.36533 64.3751 7.202 65.0565 7.202C65.7285 7.202 66.3118 7.34667 66.8065 7.636C67.3011 7.92533 67.6698 8.28933 67.9125 8.728V7.328H69.2005V15H67.9125V13.572C67.6605 14.02 67.2825 14.3933 66.7785 14.692C66.2838 14.9813 65.7051 15.126 65.0425 15.126C64.3611 15.126 63.7451 14.958 63.1945 14.622C62.6438 14.286 62.2098 13.8147 61.8925 13.208C61.5751 12.6013 61.4165 11.9107 61.4165 11.136ZM67.9125 11.15C67.9125 10.5713 67.7958 10.0673 67.5625 9.638C67.3291 9.20867 67.0118 8.882 66.6105 8.658C66.2185 8.42467 65.7845 8.308 65.3085 8.308C64.8325 8.308 64.3985 8.42 64.0065 8.644C63.6145 8.868 63.3018 9.19467 63.0685 9.624C62.8351 10.0533 62.7185 10.5573 62.7185 11.136C62.7185 11.724 62.8351 12.2373 63.0685 12.676C63.3018 13.1053 63.6145 13.4367 64.0065 13.67C64.3985 13.894 64.8325 14.006 65.3085 14.006C65.7845 14.006 66.2185 13.894 66.6105 13.67C67.0118 13.4367 67.3291 13.1053 67.5625 12.676C67.7958 12.2373 67.9125 11.7287 67.9125 11.15ZM74.5174 7.202C75.1801 7.202 75.7587 7.34667 76.2534 7.636C76.7574 7.92533 77.1307 8.28933 77.3734 8.728V7.328H78.6614V15.168C78.6614 15.868 78.5121 16.4887 78.2134 17.03C77.9147 17.5807 77.4854 18.01 76.9254 18.318C76.3747 18.626 75.7307 18.78 74.9934 18.78C73.9854 18.78 73.1454 18.542 72.4734 18.066C71.8014 17.59 71.4047 16.9413 71.2834 16.12H72.5434C72.6834 16.5867 72.9727 16.96 73.4114 17.24C73.8501 17.5293 74.3774 17.674 74.9934 17.674C75.6934 17.674 76.2627 17.4547 76.7014 17.016C77.1494 16.5773 77.3734 15.9613 77.3734 15.168V13.558C77.1214 14.006 76.7481 14.3793 76.2534 14.678C75.7587 14.9767 75.1801 15.126 74.5174 15.126C73.8361 15.126 73.2154 14.958 72.6554 14.622C72.1047 14.286 71.6707 13.8147 71.3534 13.208C71.0361 12.6013 70.8774 11.9107 70.8774 11.136C70.8774 10.352 71.0361 9.666 71.3534 9.078C71.6707 8.48067 72.1047 8.01867 72.6554 7.692C73.2154 7.36533 73.8361 7.202 74.5174 7.202ZM77.3734 11.15C77.3734 10.5713 77.2567 10.0673 77.0234 9.638C76.7901 9.20867 76.4727 8.882 76.0714 8.658C75.6794 8.42467 75.2454 8.308 74.7694 8.308C74.2934 8.308 73.8594 8.42 73.4674 8.644C73.0754 8.868 72.7627 9.19467 72.5294 9.624C72.2961 10.0533 72.1794 10.5573 72.1794 11.136C72.1794 11.724 72.2961 12.2373 72.5294 12.676C72.7627 13.1053 73.0754 13.4367 73.4674 13.67C73.8594 13.894 74.2934 14.006 74.7694 14.006C75.2454 14.006 75.6794 13.894 76.0714 13.67C76.4727 13.4367 76.7901 13.1053 77.0234 12.676C77.2567 12.2373 77.3734 11.7287 77.3734 11.15ZM82.0883 8.574C82.3123 8.13533 82.6297 7.79467 83.0403 7.552C83.4603 7.30933 83.969 7.188 84.5663 7.188V8.504H84.2303C82.8023 8.504 82.0883 9.27867 82.0883 10.828V15H80.8143V7.328H82.0883V8.574ZM85.561 11.136C85.561 10.352 85.7197 9.666 86.037 9.078C86.3543 8.48067 86.7883 8.01867 87.339 7.692C87.899 7.36533 88.5197 7.202 89.201 7.202C89.873 7.202 90.4563 7.34667 90.951 7.636C91.4457 7.92533 91.8143 8.28933 92.057 8.728V7.328H93.345V15H92.057V13.572C91.805 14.02 91.427 14.3933 90.923 14.692C90.4283 14.9813 89.8497 15.126 89.187 15.126C88.5057 15.126 87.8897 14.958 87.339 14.622C86.7883 14.286 86.3543 13.8147 86.037 13.208C85.7197 12.6013 85.561 11.9107 85.561 11.136ZM92.057 11.15C92.057 10.5713 91.9403 10.0673 91.707 9.638C91.4737 9.20867 91.1563 8.882 90.755 8.658C90.363 8.42467 89.929 8.308 89.453 8.308C88.977 8.308 88.543 8.42 88.151 8.644C87.759 8.868 87.4463 9.19467 87.213 9.624C86.9797 10.0533 86.863 10.5573 86.863 11.136C86.863 11.724 86.9797 12.2373 87.213 12.676C87.4463 13.1053 87.759 13.4367 88.151 13.67C88.543 13.894 88.977 14.006 89.453 14.006C89.929 14.006 90.363 13.894 90.755 13.67C91.1563 13.4367 91.4737 13.1053 91.707 12.676C91.9403 12.2373 92.057 11.7287 92.057 11.15ZM104.724 7.188C105.321 7.188 105.853 7.314 106.32 7.566C106.787 7.80867 107.155 8.17733 107.426 8.672C107.697 9.16667 107.832 9.76867 107.832 10.478V15H106.572V10.66C106.572 9.89467 106.381 9.31133 105.998 8.91C105.625 8.49933 105.116 8.294 104.472 8.294C103.809 8.294 103.282 8.50867 102.89 8.938C102.498 9.358 102.302 9.96933 102.302 10.772V15H101.042V10.66C101.042 9.89467 100.851 9.31133 100.468 8.91C100.095 8.49933 99.5859 8.294 98.9419 8.294C98.2793 8.294 97.7519 8.50867 97.3599 8.938C96.9679 9.358 96.7719 9.96933 96.7719 10.772V15H95.4979V7.328H96.7719V8.434C97.0239 8.03267 97.3599 7.72467 97.7799 7.51C98.2093 7.29533 98.6806 7.188 99.1939 7.188C99.8379 7.188 100.407 7.33267 100.902 7.622C101.397 7.91133 101.765 8.336 102.008 8.896C102.223 8.35467 102.577 7.93467 103.072 7.636C103.567 7.33733 104.117 7.188 104.724 7.188Z" fill="white"/>
</svg>
