<svg width="112" height="24" viewBox="0 0 112 24" fill="none" xmlns="http://www.w3.org/2000/svg">
<path fill-rule="evenodd" clip-rule="evenodd" d="M16 3H8C5.23858 3 3 5.23858 3 8V16C3 18.7614 5.23858 21 8 21H16C18.7614 21 21 18.7614 21 16V8C21 5.23858 18.7614 3 16 3ZM19.25 16C19.2445 17.7926 17.7926 19.2445 16 19.25H8C6.20735 19.2445 4.75549 17.7926 4.75 16V8C4.75549 6.20735 6.20735 4.75549 8 4.75H16C17.7926 4.75549 19.2445 6.20735 19.25 8V16ZM16.75 8.25C17.3023 8.25 17.75 7.80228 17.75 7.25C17.75 6.69772 17.3023 6.25 16.75 6.25C16.1977 6.25 15.75 6.69772 15.75 7.25C15.75 7.80228 16.1977 8.25 16.75 8.25ZM12 7.5C9.51472 7.5 7.5 9.51472 7.5 12C7.5 14.4853 9.51472 16.5 12 16.5C14.4853 16.5 16.5 14.4853 16.5 12C16.5027 10.8057 16.0294 9.65957 15.1849 8.81508C14.3404 7.97059 13.1943 7.49734 12 7.5ZM9.25 12C9.25 13.5188 10.4812 14.75 12 14.75C13.5188 14.75 14.75 13.5188 14.75 12C14.75 10.4812 13.5188 9.25 12 9.25C10.4812 9.25 9.25 10.4812 9.25 12Z" fill="black"/>
<path d="M37.136 16V4.8H38.832V16H37.136ZM41.0408 16V8.064H42.5448L42.6728 9.456C42.9181 8.96533 43.2754 8.58133 43.7448 8.304C44.2248 8.016 44.7741 7.872 45.3928 7.872C46.3528 7.872 47.1048 8.17067 47.6488 8.768C48.2034 9.36533 48.4808 10.256 48.4808 11.44V16H46.8008V11.616C46.8008 10.08 46.1714 9.312 44.9128 9.312C44.2834 9.312 43.7608 9.536 43.3448 9.984C42.9394 10.432 42.7368 11.072 42.7368 11.904V16H41.0408ZM53.6463 16.192C52.6436 16.192 51.8169 15.9467 51.1663 15.456C50.5156 14.9653 50.1423 14.3147 50.0463 13.504H51.7582C51.8436 13.8667 52.0463 14.1813 52.3663 14.448C52.6863 14.704 53.1076 14.832 53.6302 14.832C54.1423 14.832 54.5156 14.7253 54.7503 14.512C54.9849 14.2987 55.1023 14.0533 55.1023 13.776C55.1023 13.3707 54.9369 13.0987 54.6063 12.96C54.2863 12.8107 53.8383 12.6773 53.2623 12.56C52.8143 12.464 52.3663 12.336 51.9183 12.176C51.4809 12.016 51.1129 11.792 50.8143 11.504C50.5263 11.2053 50.3823 10.8053 50.3823 10.304C50.3823 9.61067 50.6489 9.03467 51.1823 8.576C51.7156 8.10667 52.4623 7.872 53.4223 7.872C54.3076 7.872 55.0223 8.08533 55.5663 8.512C56.1209 8.93867 56.4463 9.54133 56.5423 10.32H54.9103C54.8569 9.97867 54.6969 9.712 54.4303 9.52C54.1743 9.328 53.8276 9.232 53.3903 9.232C52.9636 9.232 52.6329 9.32267 52.3983 9.504C52.1636 9.67467 52.0463 9.89867 52.0463 10.176C52.0463 10.4533 52.2063 10.672 52.5263 10.832C52.8569 10.992 53.2889 11.136 53.8223 11.264C54.3556 11.3813 54.8463 11.52 55.2943 11.68C55.7529 11.8293 56.1209 12.0533 56.3983 12.352C56.6756 12.6507 56.8143 13.088 56.8143 13.664C56.8249 14.3893 56.5423 14.992 55.9663 15.472C55.4009 15.952 54.6276 16.192 53.6463 16.192ZM61.6969 16C60.9182 16 60.2995 15.8133 59.8409 15.44C59.3822 15.056 59.1529 14.3787 59.1529 13.408V9.488H57.7929V8.064H59.1529L59.3609 6.048H60.8489V8.064H63.0889V9.488H60.8489V13.408C60.8489 13.8453 60.9395 14.1493 61.1209 14.32C61.3129 14.48 61.6382 14.56 62.0969 14.56H63.0089V16H61.6969ZM67.5256 16.192C66.8536 16.192 66.299 16.08 65.8616 15.856C65.4243 15.632 65.099 15.3387 64.8856 14.976C64.6723 14.6027 64.5656 14.1973 64.5656 13.76C64.5656 12.992 64.8643 12.384 65.4616 11.936C66.059 11.488 66.9123 11.264 68.0216 11.264H70.1016V11.12C70.1016 10.5013 69.931 10.0373 69.5896 9.728C69.259 9.41867 68.827 9.264 68.2936 9.264C67.8243 9.264 67.4136 9.38133 67.0616 9.616C66.7203 9.84 66.5123 10.176 66.4376 10.624H64.7416C64.795 10.048 64.987 9.55733 65.3176 9.152C65.659 8.736 66.0856 8.42133 66.5976 8.208C67.1203 7.984 67.691 7.872 68.3096 7.872C69.419 7.872 70.2776 8.16533 70.8856 8.752C71.4936 9.328 71.7976 10.1173 71.7976 11.12V16H70.3256L70.1816 14.64C69.9576 15.0773 69.6323 15.4453 69.2056 15.744C68.779 16.0427 68.219 16.192 67.5256 16.192ZM67.8616 14.816C68.3203 14.816 68.7043 14.7093 69.0136 14.496C69.3336 14.272 69.579 13.9787 69.7496 13.616C69.931 13.2533 70.043 12.8533 70.0856 12.416H68.1976C67.5256 12.416 67.0456 12.5333 66.7576 12.768C66.4803 13.0027 66.3416 13.296 66.3416 13.648C66.3416 14.0107 66.475 14.2987 66.7416 14.512C67.019 14.7147 67.3923 14.816 67.8616 14.816ZM77.0231 13.568C76.6071 13.568 76.2231 13.52 75.8711 13.424L75.1831 14.096C75.3005 14.1707 75.4445 14.2347 75.6151 14.288C75.7858 14.3413 76.0258 14.3893 76.3351 14.432C76.6445 14.4747 77.0658 14.5173 77.5991 14.56C78.6551 14.656 79.4178 14.912 79.8871 15.328C80.3565 15.7333 80.5911 16.2773 80.5911 16.96C80.5911 17.4293 80.4631 17.872 80.2071 18.288C79.9618 18.7147 79.5725 19.056 79.0391 19.312C78.5165 19.5787 77.8445 19.712 77.0231 19.712C75.9138 19.712 75.0125 19.4987 74.3191 19.072C73.6365 18.656 73.2951 18.0213 73.2951 17.168C73.2951 16.8373 73.3805 16.5067 73.5511 16.176C73.7325 15.856 74.0151 15.552 74.3991 15.264C74.1751 15.168 73.9778 15.0667 73.8071 14.96C73.6471 14.8427 73.5031 14.7253 73.3751 14.608V14.224L74.7511 12.816C74.1325 12.2827 73.8231 11.584 73.8231 10.72C73.8231 10.1973 73.9458 9.72267 74.1911 9.296C74.4471 8.85867 74.8151 8.512 75.2951 8.256C75.7751 8 76.3511 7.872 77.0231 7.872C77.4711 7.872 77.8871 7.936 78.2711 8.064H81.2311V9.184L79.8231 9.264C80.0791 9.70133 80.2071 10.1867 80.2071 10.72C80.2071 11.2533 80.0791 11.7333 79.8231 12.16C79.5778 12.5867 79.2151 12.928 78.7351 13.184C78.2658 13.44 77.6951 13.568 77.0231 13.568ZM77.0231 12.24C77.5138 12.24 77.9085 12.112 78.2071 11.856C78.5165 11.5893 78.6711 11.216 78.6711 10.736C78.6711 10.2453 78.5165 9.872 78.2071 9.616C77.9085 9.36 77.5138 9.232 77.0231 9.232C76.5218 9.232 76.1165 9.36 75.8071 9.616C75.5085 9.872 75.3591 10.2453 75.3591 10.736C75.3591 11.216 75.5085 11.5893 75.8071 11.856C76.1165 12.112 76.5218 12.24 77.0231 12.24ZM74.8951 17.008C74.8951 17.4667 75.0978 17.808 75.5031 18.032C75.9085 18.2667 76.4151 18.384 77.0231 18.384C77.6098 18.384 78.0845 18.256 78.4471 18C78.8098 17.7547 78.9911 17.424 78.9911 17.008C78.9911 16.6987 78.8685 16.432 78.6231 16.208C78.3778 15.9947 77.9138 15.8613 77.2311 15.808C76.7191 15.776 76.2658 15.728 75.8711 15.664C75.4978 15.8667 75.2418 16.0853 75.1031 16.32C74.9645 16.5547 74.8951 16.784 74.8951 17.008ZM82.7439 16V8.064H84.2639L84.4079 9.568C84.6852 9.04533 85.0692 8.63467 85.5599 8.336C86.0612 8.02667 86.6639 7.872 87.3679 7.872V9.648H86.9039C86.4345 9.648 86.0132 9.728 85.6399 9.888C85.2772 10.0373 84.9839 10.2987 84.7599 10.672C84.5465 11.0347 84.4399 11.5413 84.4399 12.192V16H82.7439ZM91.51 16.192C90.838 16.192 90.2833 16.08 89.846 15.856C89.4087 15.632 89.0833 15.3387 88.87 14.976C88.6567 14.6027 88.55 14.1973 88.55 13.76C88.55 12.992 88.8487 12.384 89.446 11.936C90.0433 11.488 90.8967 11.264 92.006 11.264H94.086V11.12C94.086 10.5013 93.9153 10.0373 93.574 9.728C93.2433 9.41867 92.8113 9.264 92.278 9.264C91.8087 9.264 91.398 9.38133 91.046 9.616C90.7047 9.84 90.4967 10.176 90.422 10.624H88.726C88.7793 10.048 88.9713 9.55733 89.302 9.152C89.6433 8.736 90.07 8.42133 90.582 8.208C91.1047 7.984 91.6753 7.872 92.294 7.872C93.4033 7.872 94.262 8.16533 94.87 8.752C95.478 9.328 95.782 10.1173 95.782 11.12V16H94.31L94.166 14.64C93.942 15.0773 93.6167 15.4453 93.19 15.744C92.7633 16.0427 92.2033 16.192 91.51 16.192ZM91.846 14.816C92.3047 14.816 92.6887 14.7093 92.998 14.496C93.318 14.272 93.5633 13.9787 93.734 13.616C93.9153 13.2533 94.0273 12.8533 94.07 12.416H92.182C91.51 12.416 91.03 12.5333 90.742 12.768C90.4647 13.0027 90.326 13.296 90.326 13.648C90.326 14.0107 90.4593 14.2987 90.726 14.512C91.0033 14.7147 91.3767 14.816 91.846 14.816ZM97.7595 16V8.064H99.2635L99.4075 9.184C99.6635 8.77867 99.9995 8.45867 100.416 8.224C100.842 7.98933 101.333 7.872 101.888 7.872C103.146 7.872 104.021 8.368 104.512 9.36C104.8 8.90133 105.184 8.53867 105.664 8.272C106.154 8.00533 106.682 7.872 107.248 7.872C108.24 7.872 109.018 8.17067 109.584 8.768C110.149 9.36533 110.432 10.256 110.432 11.44V16H108.736V11.616C108.736 10.08 108.149 9.312 106.976 9.312C106.378 9.312 105.888 9.536 105.503 9.984C105.13 10.432 104.944 11.072 104.944 11.904V16H103.248V11.616C103.248 10.08 102.656 9.312 101.472 9.312C100.885 9.312 100.4 9.536 100.016 9.984C99.6422 10.432 99.4555 11.072 99.4555 11.904V16H97.7595Z" fill="black"/>
</svg>
