<svg width="100" height="24" viewBox="0 0 100 24" fill="none" xmlns="http://www.w3.org/2000/svg">
<path fill-rule="evenodd" clip-rule="evenodd" d="M5 3H19C20.1046 3 21 3.89543 21 5V19C21 20.1046 20.1046 21 19 21H5C3.89543 21 3 20.1046 3 19V5C3 3.89543 3.89543 3 5 3ZM8 18C8.27614 18 8.5 17.7761 8.5 17.5V10.5C8.5 10.2239 8.27614 10 8 10H6.5C6.22386 10 6 10.2239 6 10.5V17.5C6 17.7761 6.22386 18 6.5 18H8ZM7.25 9C6.42157 9 5.75 8.32843 5.75 7.5C5.75 6.67157 6.42157 6 7.25 6C8.07843 6 8.75 6.67157 8.75 7.5C8.75 8.32843 8.07843 9 7.25 9ZM17.5 18C17.7761 18 18 17.7761 18 17.5V12.9C18.0325 11.3108 16.8576 9.95452 15.28 9.76C14.177 9.65925 13.1083 10.1744 12.5 11.1V10.5C12.5 10.2239 12.2761 10 12 10H10.5C10.2239 10 10 10.2239 10 10.5V17.5C10 17.7761 10.2239 18 10.5 18H12C12.2761 18 12.5 17.7761 12.5 17.5V13.75C12.5 12.9216 13.1716 12.25 14 12.25C14.8284 12.25 15.5 12.9216 15.5 13.75V17.5C15.5 17.7761 15.7239 18 16 18H17.5Z" fill="black"/>
<path d="M37.136 16V4.8H38.832V14.656H43.92V16H37.136ZM46.6414 6.56C46.3214 6.56 46.0547 6.464 45.8414 6.272C45.6387 6.06933 45.5374 5.81867 45.5374 5.52C45.5374 5.22133 45.6387 4.976 45.8414 4.784C46.0547 4.58133 46.3214 4.48 46.6414 4.48C46.9614 4.48 47.2227 4.58133 47.4254 4.784C47.6387 4.976 47.7454 5.22133 47.7454 5.52C47.7454 5.81867 47.6387 6.06933 47.4254 6.272C47.2227 6.464 46.9614 6.56 46.6414 6.56ZM45.7934 16V8.064H47.4894V16H45.7934ZM49.7283 16V8.064H51.2323L51.3603 9.456C51.6056 8.96533 51.9629 8.58133 52.4323 8.304C52.9123 8.016 53.4616 7.872 54.0803 7.872C55.0403 7.872 55.7923 8.17067 56.3363 8.768C56.8909 9.36533 57.1683 10.256 57.1683 11.44V16H55.4883V11.616C55.4883 10.08 54.8589 9.312 53.6003 9.312C52.9709 9.312 52.4483 9.536 52.0323 9.984C51.6269 10.432 51.4243 11.072 51.4243 11.904V16H49.7283ZM59.1658 16V4.48H60.8618V11.344L63.9018 8.064H65.9338L62.5578 11.664L66.4298 16H64.2858L60.8618 11.936V16H59.1658ZM70.8465 16.192C70.0678 16.192 69.3745 16.0213 68.7665 15.68C68.1692 15.328 67.6998 14.8427 67.3585 14.224C67.0172 13.6053 66.8465 12.8853 66.8465 12.064C66.8465 11.232 67.0118 10.5013 67.3425 9.872C67.6838 9.24267 68.1532 8.752 68.7505 8.4C69.3585 8.048 70.0625 7.872 70.8625 7.872C71.6412 7.872 72.3185 8.048 72.8945 8.4C73.4705 8.74133 73.9185 9.2 74.2385 9.776C74.5585 10.352 74.7185 10.9867 74.7185 11.68C74.7185 11.7867 74.7132 11.904 74.7025 12.032C74.7025 12.1493 74.6972 12.2827 74.6865 12.432H68.5105C68.5638 13.2 68.8145 13.7867 69.2625 14.192C69.7212 14.5867 70.2492 14.784 70.8465 14.784C71.3265 14.784 71.7265 14.6773 72.0465 14.464C72.3772 14.24 72.6225 13.9413 72.7825 13.568H74.4785C74.2652 14.3147 73.8385 14.9387 73.1985 15.44C72.5692 15.9413 71.7852 16.192 70.8465 16.192ZM70.8465 9.264C70.2812 9.264 69.7798 9.43467 69.3425 9.776C68.9052 10.1067 68.6385 10.608 68.5425 11.28H73.0225C72.9905 10.6613 72.7718 10.1707 72.3665 9.808C71.9612 9.44533 71.4545 9.264 70.8465 9.264ZM80.0943 16.192C79.3263 16.192 78.6489 16.0107 78.0623 15.648C77.4756 15.2853 77.0169 14.7893 76.6863 14.16C76.3556 13.5307 76.1903 12.816 76.1903 12.016C76.1903 11.216 76.3556 10.5067 76.6863 9.888C77.0169 9.25867 77.4756 8.768 78.0623 8.416C78.6596 8.05333 79.3423 7.872 80.1102 7.872C80.7396 7.872 81.2889 7.99467 81.7583 8.24C82.2383 8.48533 82.6116 8.832 82.8783 9.28V4.48H84.5743V16H83.0543L82.8783 14.768C82.6223 15.1413 82.2703 15.472 81.8223 15.76C81.3743 16.048 80.7983 16.192 80.0943 16.192ZM80.3983 14.72C81.1236 14.72 81.7156 14.4693 82.1743 13.968C82.6436 13.4667 82.8783 12.8213 82.8783 12.032C82.8783 11.232 82.6436 10.5867 82.1743 10.096C81.7156 9.59467 81.1236 9.344 80.3983 9.344C79.6729 9.344 79.0756 9.59467 78.6063 10.096C78.1369 10.5867 77.9023 11.232 77.9023 12.032C77.9023 12.5547 78.0089 13.0187 78.2223 13.424C78.4356 13.8293 78.7289 14.1493 79.1023 14.384C79.4863 14.608 79.9183 14.72 80.3983 14.72ZM86.7766 16V4.8H88.4726V16H86.7766ZM90.6814 16V8.064H92.1854L92.3134 9.456C92.5587 8.96533 92.916 8.58133 93.3854 8.304C93.8654 8.016 94.4147 7.872 95.0334 7.872C95.9934 7.872 96.7454 8.17067 97.2894 8.768C97.844 9.36533 98.1214 10.256 98.1214 11.44V16H96.4414V11.616C96.4414 10.08 95.812 9.312 94.5534 9.312C93.924 9.312 93.4014 9.536 92.9854 9.984C92.58 10.432 92.3774 11.072 92.3774 11.904V16H90.6814Z" fill="black"/>
</svg>
