<svg width="35" height="34" viewBox="0 0 35 34" fill="none" xmlns="http://www.w3.org/2000/svg">
<rect x="0.851929" width="33.4653" height="33.4653" rx="12" fill="white"/>
<path fill-rule="evenodd" clip-rule="evenodd" d="M9.29088 14.1307H12.4985V24.4513H9.29088V14.1307ZM10.8952 9.00033C11.9209 9.00033 12.7542 9.83367 12.7542 10.8593C12.7542 11.886 11.9209 12.7197 10.8952 12.7197C10.648 12.7243 10.4024 12.6797 10.1727 12.5883C9.94296 12.497 9.73375 12.3608 9.55729 12.1876C9.38083 12.0145 9.24066 11.8079 9.14497 11.5799C9.04928 11.352 9 11.1072 9 10.86C9 10.6128 9.04928 10.368 9.14497 10.1401C9.24066 9.91213 9.38083 9.70554 9.55729 9.53239C9.73375 9.35924 9.94296 9.22301 10.1727 9.13165C10.4024 9.0403 10.648 8.99565 10.8952 9.00033ZM14.5105 14.1303H17.5872V15.5407H17.6299C18.0582 14.7293 19.1045 13.874 20.6649 13.874C23.9129 13.874 24.5129 16.0117 24.5129 18.7907V24.4513H21.3072V19.4323C21.3072 18.2357 21.2852 16.696 19.6405 16.696C17.9715 16.696 17.7152 17.9997 17.7152 19.346V24.4513H14.5102L14.5105 14.1303Z" fill="#E55427"/>
</svg>
