<svg width="88" height="24" viewBox="0 0 88 24" fill="none" xmlns="http://www.w3.org/2000/svg">
<g clip-path="url(#clip0_366_70)">
<g clip-path="url(#clip1_366_70)">
<mask id="mask0_366_70" style="mask-type:luminance" maskUnits="userSpaceOnUse" x="0" y="0" width="24" height="24">
<path d="M24 0H0V24H24V0Z" fill="white"/>
</mask>
<g mask="url(#mask0_366_70)">
<path d="M21.1875 0H2.8125C1.2592 0 0 1.2592 0 2.8125V21.1875C0 22.7408 1.2592 24 2.8125 24H21.1875C22.7408 24 24 22.7408 24 21.1875V2.8125C24 1.2592 22.7408 0 21.1875 0Z" fill="white"/>
<path d="M16.6829 4.6875H19.1639L13.7437 10.8825L20.1202 19.3125H15.1274L11.2169 14.1998L6.74241 19.3125H4.25993L10.0574 12.6863L3.94043 4.6875H9.05991L12.5947 9.36075L16.6829 4.6875ZM15.8122 17.8275H17.1869L8.31291 6.0945H6.83766L15.8122 17.8275Z" fill="black"/>
</g>
</g>
</g>
<path d="M38.76 19V9.176H35.448V7.8H43.752V9.176H40.456V19H38.76ZM45.9841 19L43.6481 11.064H45.3441L46.8801 17.048L48.6081 11.064H50.4961L52.2241 17.048L53.7601 11.064H55.4561L53.1201 19H51.3761L49.5521 12.76L47.7281 19H45.9841ZM57.8133 9.56C57.4933 9.56 57.2266 9.464 57.0133 9.272C56.8106 9.06933 56.7093 8.81867 56.7093 8.52C56.7093 8.22133 56.8106 7.976 57.0133 7.784C57.2266 7.58133 57.4933 7.48 57.8133 7.48C58.1333 7.48 58.3946 7.58133 58.5973 7.784C58.8106 7.976 58.9173 8.22133 58.9173 8.52C58.9173 8.81867 58.8106 9.06933 58.5973 9.272C58.3946 9.464 58.1333 9.56 57.8133 9.56ZM56.9653 19V11.064H58.6613V19H56.9653ZM64.2281 19C63.4495 19 62.8308 18.8133 62.3721 18.44C61.9135 18.056 61.6841 17.3787 61.6841 16.408V12.488H60.3241V11.064H61.6841L61.8921 9.048H63.3801V11.064H65.6201V12.488H63.3801V16.408C63.3801 16.8453 63.4708 17.1493 63.6521 17.32C63.8441 17.48 64.1695 17.56 64.6281 17.56H65.5401V19H64.2281ZM70.6969 19C69.9182 19 69.2995 18.8133 68.8409 18.44C68.3822 18.056 68.1529 17.3787 68.1529 16.408V12.488H66.7929V11.064H68.1529L68.3609 9.048H69.8489V11.064H72.0889V12.488H69.8489V16.408C69.8489 16.8453 69.9395 17.1493 70.1209 17.32C70.3129 17.48 70.6382 17.56 71.0969 17.56H72.0089V19H70.6969ZM77.3465 19.192C76.5678 19.192 75.8745 19.0213 75.2665 18.68C74.6692 18.328 74.1998 17.8427 73.8585 17.224C73.5172 16.6053 73.3465 15.8853 73.3465 15.064C73.3465 14.232 73.5118 13.5013 73.8425 12.872C74.1838 12.2427 74.6532 11.752 75.2505 11.4C75.8585 11.048 76.5625 10.872 77.3625 10.872C78.1412 10.872 78.8185 11.048 79.3945 11.4C79.9705 11.7413 80.4185 12.2 80.7385 12.776C81.0585 13.352 81.2185 13.9867 81.2185 14.68C81.2185 14.7867 81.2132 14.904 81.2025 15.032C81.2025 15.1493 81.1972 15.2827 81.1865 15.432H75.0105C75.0638 16.2 75.3145 16.7867 75.7625 17.192C76.2212 17.5867 76.7492 17.784 77.3465 17.784C77.8265 17.784 78.2265 17.6773 78.5465 17.464C78.8772 17.24 79.1225 16.9413 79.2825 16.568H80.9785C80.7652 17.3147 80.3385 17.9387 79.6985 18.44C79.0692 18.9413 78.2852 19.192 77.3465 19.192ZM77.3465 12.264C76.7812 12.264 76.2798 12.4347 75.8425 12.776C75.4052 13.1067 75.1385 13.608 75.0425 14.28H79.5225C79.4905 13.6613 79.2718 13.1707 78.8665 12.808C78.4612 12.4453 77.9545 12.264 77.3465 12.264ZM82.9783 19V11.064H84.4983L84.6423 12.568C84.9196 12.0453 85.3036 11.6347 85.7943 11.336C86.2956 11.0267 86.8983 10.872 87.6023 10.872V12.648H87.1383C86.6689 12.648 86.2476 12.728 85.8743 12.888C85.5116 13.0373 85.2183 13.2987 84.9943 13.672C84.7809 14.0347 84.6743 14.5413 84.6743 15.192V19H82.9783Z" fill="black"/>
<defs>
<clipPath id="clip0_366_70">
<rect width="24" height="24" fill="white"/>
</clipPath>
<clipPath id="clip1_366_70">
<rect width="24" height="24" fill="white"/>
</clipPath>
</defs>
</svg>
