<svg width="84" height="24" viewBox="0 0 84 24" fill="none" xmlns="http://www.w3.org/2000/svg">
<g clip-path="url(#clip0_350_33)">
<rect x="0.666992" width="24" height="24" rx="12" fill="white"/>
<path d="M7.52795 6.15894L16.404 17.7639H17.764L8.98895 6.15894H7.52795Z" fill="black"/>
<path d="M12.667 0C6.03999 0 0.666992 5.373 0.666992 12C0.666992 18.627 6.03999 24 12.667 24C19.294 24 24.667 18.627 24.667 12C24.667 5.373 19.294 0 12.667 0ZM15.73 19.232L11.86 14.177L7.43799 19.232H4.97999L10.713 12.678L4.66699 4.768H9.72899L13.223 9.389L17.266 4.768H19.721L14.36 10.894L20.667 19.231L15.73 19.232Z" fill="black"/>
</g>
<path d="M43.751 5.242V6.278H41.091V15H39.817V6.278H37.143V5.242H43.751ZM55.5392 7.328L53.1452 15H51.8292L49.9812 8.91L48.1332 15H46.8172L44.4092 7.328H45.7112L47.4752 13.768L49.3792 7.328H50.6812L52.5432 13.782L54.2792 7.328H55.5392ZM57.4616 6.082C57.2189 6.082 57.0136 5.998 56.8456 5.83C56.6776 5.662 56.5936 5.45667 56.5936 5.214C56.5936 4.97133 56.6776 4.766 56.8456 4.598C57.0136 4.43 57.2189 4.346 57.4616 4.346C57.6949 4.346 57.8909 4.43 58.0496 4.598C58.2176 4.766 58.3016 4.97133 58.3016 5.214C58.3016 5.45667 58.2176 5.662 58.0496 5.83C57.8909 5.998 57.6949 6.082 57.4616 6.082ZM58.0776 7.328V15H56.8036V7.328H58.0776ZM61.8029 8.378V12.9C61.8029 13.2733 61.8822 13.5393 62.0409 13.698C62.1996 13.8473 62.4749 13.922 62.8669 13.922H63.8049V15H62.6569C61.9476 15 61.4156 14.8367 61.0609 14.51C60.7062 14.1833 60.5289 13.6467 60.5289 12.9V8.378H59.5349V7.328H60.5289V5.396H61.8029V7.328H63.8049V8.378H61.8029ZM66.9025 8.378V12.9C66.9025 13.2733 66.9818 13.5393 67.1405 13.698C67.2992 13.8473 67.5745 13.922 67.9665 13.922H68.9045V15H67.7565C67.0472 15 66.5152 14.8367 66.1605 14.51C65.8058 14.1833 65.6285 13.6467 65.6285 12.9V8.378H64.6345V7.328H65.6285V5.396H66.9025V7.328H68.9045V8.378H66.9025ZM77.4481 10.87C77.4481 11.1127 77.4341 11.3693 77.4061 11.64H71.2741C71.3208 12.396 71.5775 12.9887 72.0441 13.418C72.5201 13.838 73.0941 14.048 73.7661 14.048C74.3168 14.048 74.7741 13.922 75.1381 13.67C75.5115 13.4087 75.7728 13.0633 75.9221 12.634H77.2941C77.0888 13.3713 76.6781 13.9733 76.0621 14.44C75.4461 14.8973 74.6808 15.126 73.7661 15.126C73.0381 15.126 72.3848 14.9627 71.8061 14.636C71.2368 14.3093 70.7888 13.8473 70.4621 13.25C70.1355 12.6433 69.9721 11.9433 69.9721 11.15C69.9721 10.3567 70.1308 9.66133 70.4481 9.064C70.7655 8.46667 71.2088 8.00933 71.7781 7.692C72.3568 7.36533 73.0195 7.202 73.7661 7.202C74.4941 7.202 75.1381 7.36067 75.6981 7.678C76.2581 7.99533 76.6875 8.434 76.9861 8.994C77.2941 9.54467 77.4481 10.17 77.4481 10.87ZM76.1321 10.604C76.1321 10.1187 76.0248 9.70333 75.8101 9.358C75.5955 9.00333 75.3015 8.73733 74.9281 8.56C74.5641 8.37333 74.1581 8.28 73.7101 8.28C73.0661 8.28 72.5155 8.48533 72.0581 8.896C71.6101 9.30667 71.3535 9.876 71.2881 10.604H76.1321ZM80.4038 8.574C80.6278 8.13533 80.9451 7.79467 81.3558 7.552C81.7758 7.30933 82.2844 7.188 82.8818 7.188V8.504H82.5458C81.1178 8.504 80.4038 9.27867 80.4038 10.828V15H79.1298V7.328H80.4038V8.574Z" fill="white"/>
<defs>
<clipPath id="clip0_350_33">
<rect x="0.666992" width="24" height="24" rx="12" fill="white"/>
</clipPath>
</defs>
</svg>
