<svg width="34" height="34" viewBox="0 0 34 34" fill="none" xmlns="http://www.w3.org/2000/svg">
<rect x="0.372192" width="32.796" height="33.4653" rx="12" fill="white"/>
<g clip-path="url(#clip0_349_30)">
<path fill-rule="evenodd" clip-rule="evenodd" d="M14.7448 19.7206L14.744 14.9103L19.3376 17.3236L14.7448 19.7206ZM24.83 14.0766C24.83 14.0766 24.6635 12.8972 24.1542 12.3773C23.5075 11.6952 22.7833 11.692 22.4511 11.6523C20.0721 11.4791 16.5039 11.4791 16.5039 11.4791H16.4961C16.4961 11.4791 12.9279 11.4791 10.5489 11.6527C10.2164 11.692 9.49246 11.6952 8.8454 12.3773C8.33575 12.8969 8.17 14.0766 8.17 14.0766C8.17 14.0766 8 15.4624 8 16.8476V18.1467C8 19.5322 8.17 20.9173 8.17 20.9173C8.17 20.9173 8.33575 22.097 8.8454 22.6166C9.49246 23.2987 10.3417 23.2775 10.72 23.3487C12.08 23.4801 16.5 23.5208 16.5 23.5208C16.5 23.5208 20.0721 23.5155 22.4511 23.3419C22.7833 23.3019 23.5075 23.2987 24.1542 22.6166C24.6639 22.097 24.83 20.9173 24.83 20.9173C24.83 20.9173 25 19.5325 25 18.1467V16.8476C25 15.4624 24.83 14.0766 24.83 14.0766Z" fill="#E55427"/>
</g>
<defs>
<clipPath id="clip0_349_30">
<rect width="17" height="17" fill="white" transform="translate(8 9)"/>
</clipPath>
</defs>
</svg>
