<svg width="97" height="21" viewBox="0 0 97 21" fill="none" xmlns="http://www.w3.org/2000/svg">
<path d="M43.91 5.242L40.732 11.318V15H39.458V11.318L36.266 5.242H37.68L40.088 10.184L42.496 5.242H43.91ZM48.5998 15.126C47.8811 15.126 47.2278 14.9627 46.6398 14.636C46.0611 14.3093 45.6038 13.8473 45.2678 13.25C44.9411 12.6433 44.7778 11.9433 44.7778 11.15C44.7778 10.366 44.9458 9.67533 45.2818 9.078C45.6271 8.47133 46.0938 8.00933 46.6818 7.692C47.2698 7.36533 47.9278 7.202 48.6558 7.202C49.3838 7.202 50.0418 7.36533 50.6298 7.692C51.2178 8.00933 51.6798 8.46667 52.0158 9.064C52.3611 9.66133 52.5338 10.3567 52.5338 11.15C52.5338 11.9433 52.3564 12.6433 52.0018 13.25C51.6564 13.8473 51.1851 14.3093 50.5878 14.636C49.9904 14.9627 49.3278 15.126 48.5998 15.126ZM48.5998 14.006C49.0571 14.006 49.4864 13.8987 49.8878 13.684C50.2891 13.4693 50.6111 13.1473 50.8538 12.718C51.1058 12.2887 51.2318 11.766 51.2318 11.15C51.2318 10.534 51.1104 10.0113 50.8678 9.582C50.6251 9.15267 50.3078 8.83533 49.9158 8.63C49.5238 8.41533 49.0991 8.308 48.6418 8.308C48.1751 8.308 47.7458 8.41533 47.3538 8.63C46.9711 8.83533 46.6631 9.15267 46.4298 9.582C46.1964 10.0113 46.0798 10.534 46.0798 11.15C46.0798 11.7753 46.1918 12.3027 46.4158 12.732C46.6491 13.1613 46.9571 13.4833 47.3398 13.698C47.7224 13.9033 48.1424 14.006 48.5998 14.006ZM61.0129 7.328V15H59.7389V13.866C59.4962 14.258 59.1555 14.566 58.7169 14.79C58.2875 15.0047 57.8115 15.112 57.2889 15.112C56.6915 15.112 56.1549 14.9907 55.6789 14.748C55.2029 14.496 54.8249 14.1227 54.5449 13.628C54.2742 13.1333 54.1389 12.5313 54.1389 11.822V7.328H55.3989V11.654C55.3989 12.41 55.5902 12.9933 55.9729 13.404C56.3555 13.8053 56.8782 14.006 57.5409 14.006C58.2222 14.006 58.7589 13.796 59.1509 13.376C59.5429 12.956 59.7389 12.3447 59.7389 11.542V7.328H61.0129ZM69.1699 5.242V6.278H66.5099V15H65.2359V6.278H62.5619V5.242H69.1699ZM77.5422 7.328V15H76.2682V13.866C76.0255 14.258 75.6848 14.566 75.2462 14.79C74.8168 15.0047 74.3408 15.112 73.8182 15.112C73.2208 15.112 72.6842 14.9907 72.2082 14.748C71.7322 14.496 71.3542 14.1227 71.0742 13.628C70.8035 13.1333 70.6682 12.5313 70.6682 11.822V7.328H71.9282V11.654C71.9282 12.41 72.1195 12.9933 72.5022 13.404C72.8848 13.8053 73.4075 14.006 74.0702 14.006C74.7515 14.006 75.2882 13.796 75.6802 13.376C76.0722 12.956 76.2682 12.3447 76.2682 11.542V7.328H77.5422ZM80.9672 8.756C81.2286 8.29867 81.6112 7.92533 82.1152 7.636C82.6192 7.34667 83.1932 7.202 83.8372 7.202C84.5279 7.202 85.1486 7.36533 85.6992 7.692C86.2499 8.01867 86.6839 8.48067 87.0012 9.078C87.3186 9.666 87.4772 10.352 87.4772 11.136C87.4772 11.9107 87.3186 12.6013 87.0012 13.208C86.6839 13.8147 86.2452 14.286 85.6852 14.622C85.1346 14.958 84.5186 15.126 83.8372 15.126C83.1746 15.126 82.5912 14.9813 82.0872 14.692C81.5926 14.4027 81.2192 14.034 80.9672 13.586V15H79.6932V4.64H80.9672V8.756ZM86.1752 11.136C86.1752 10.5573 86.0586 10.0533 85.8252 9.624C85.5919 9.19467 85.2746 8.868 84.8732 8.644C84.4812 8.42 84.0472 8.308 83.5712 8.308C83.1046 8.308 82.6706 8.42467 82.2692 8.658C81.8772 8.882 81.5599 9.21333 81.3172 9.652C81.0839 10.0813 80.9672 10.5807 80.9672 11.15C80.9672 11.7287 81.0839 12.2373 81.3172 12.676C81.5599 13.1053 81.8772 13.4367 82.2692 13.67C82.6706 13.894 83.1046 14.006 83.5712 14.006C84.0472 14.006 84.4812 13.894 84.8732 13.67C85.2746 13.4367 85.5919 13.1053 85.8252 12.676C86.0586 12.2373 86.1752 11.724 86.1752 11.136ZM96.1542 10.87C96.1542 11.1127 96.1402 11.3693 96.1122 11.64H89.9802C90.0268 12.396 90.2835 12.9887 90.7502 13.418C91.2262 13.838 91.8002 14.048 92.4722 14.048C93.0228 14.048 93.4802 13.922 93.8442 13.67C94.2175 13.4087 94.4788 13.0633 94.6282 12.634H96.0002C95.7948 13.3713 95.3842 13.9733 94.7682 14.44C94.1522 14.8973 93.3868 15.126 92.4722 15.126C91.7442 15.126 91.0908 14.9627 90.5122 14.636C89.9428 14.3093 89.4948 13.8473 89.1682 13.25C88.8415 12.6433 88.6782 11.9433 88.6782 11.15C88.6782 10.3567 88.8368 9.66133 89.1542 9.064C89.4715 8.46667 89.9148 8.00933 90.4842 7.692C91.0628 7.36533 91.7255 7.202 92.4722 7.202C93.2002 7.202 93.8442 7.36067 94.4042 7.678C94.9642 7.99533 95.3935 8.434 95.6922 8.994C96.0002 9.54467 96.1542 10.17 96.1542 10.87ZM94.8382 10.604C94.8382 10.1187 94.7308 9.70333 94.5162 9.358C94.3015 9.00333 94.0075 8.73733 93.6342 8.56C93.2702 8.37333 92.8642 8.28 92.4162 8.28C91.7722 8.28 91.2215 8.48533 90.7642 8.896C90.3162 9.30667 90.0595 9.876 89.9942 10.604H94.8382Z" fill="white"/>
<path d="M23.498 4.64C23.222 3.601 22.409 2.782 21.376 2.504C19.505 2 12 2 12 2C12 2 4.495 2 2.623 2.504C1.591 2.782 0.778 3.6 0.502 4.64C0 6.524 0 10.454 0 10.454C0 10.454 0 14.384 0.502 16.268C0.778 17.307 1.591 18.126 2.624 18.404C4.495 18.908 12 18.908 12 18.908C12 18.908 19.505 18.908 21.377 18.404C22.409 18.126 23.222 17.308 23.499 16.268C24 14.384 24 10.454 24 10.454C24 10.454 24 6.524 23.498 4.64ZM9.546 14.023V6.885L15.818 10.454L9.546 14.023Z" fill="white"/>
</svg>
