<svg width="33" height="34" viewBox="0 0 33 34" fill="none" xmlns="http://www.w3.org/2000/svg">
<path d="M0 12C0 5.37259 5.37258 0 12 0H20.796C27.4234 0 32.796 5.37259 32.796 12V21.4653C32.796 28.0928 27.4235 33.4653 20.796 33.4653H12C5.37259 33.4653 0 28.0928 0 21.4653V12Z" fill="white"/>
<path d="M21.7713 18.4882L22.3749 14.1637H18.25V11.3837C18.25 10.1482 18.8536 9.01557 20.6646 9.01557H22.4756V5.30889C22.4756 5.30889 20.7652 5 19.1554 5C15.8353 5 13.6219 7.05927 13.6219 10.8689V14.1637H10V18.4882H13.7225V28.9904C14.4268 29.0934 15.2317 29.1964 16.0366 29.1964C16.8414 29.1964 17.5457 29.0934 18.3506 28.9904V18.4882H21.7713Z" fill="#F05226"/>
</svg>
