<svg width="83" height="24" viewBox="0 0 83 24" fill="none" xmlns="http://www.w3.org/2000/svg">
<path d="M20.9728 6.7174C20.5084 7.33692 19.947 7.87733 19.3103 8.31776C19.3103 8.47959 19.3103 8.64142 19.3103 8.81225C19.3154 11.7511 18.1415 14.5691 16.0518 16.6345C13.962 18.6999 11.1312 19.8399 8.19405 19.7989C6.49599 19.8046 4.81967 19.4169 3.29642 18.6661C3.21428 18.6302 3.16131 18.549 3.16162 18.4593V18.3604C3.16162 18.2313 3.26623 18.1267 3.39527 18.1267C5.06442 18.0716 6.67402 17.4929 7.99634 16.4724C6.48553 16.4419 5.12619 15.5469 4.5006 14.1707C4.46901 14.0956 4.47884 14.0093 4.52657 13.9432C4.57429 13.8771 4.653 13.8407 4.73425 13.8471C5.19342 13.8932 5.65718 13.8505 6.1002 13.7212C4.43239 13.375 3.17921 11.9904 2.99986 10.2957C2.99349 10.2144 3.02992 10.1357 3.096 10.0879C3.16207 10.0402 3.24824 10.0303 3.32338 10.062C3.77094 10.2595 4.25409 10.3635 4.74324 10.3676C3.28184 9.40846 2.65061 7.58405 3.20655 5.92622C3.26394 5.76513 3.40181 5.64612 3.5695 5.61294C3.73718 5.57975 3.90996 5.63728 4.02432 5.76439C5.99639 7.86325 8.70604 9.11396 11.5819 9.25279C11.5083 8.95885 11.4721 8.65676 11.4741 8.35372C11.501 6.76472 12.4842 5.34921 13.9634 4.76987C15.4425 4.19054 17.1249 4.56203 18.223 5.71044C18.9714 5.56785 19.695 5.31645 20.3707 4.96421C20.4202 4.93331 20.483 4.93331 20.5325 4.96421C20.5634 5.01373 20.5634 5.07652 20.5325 5.12604C20.2052 5.87552 19.6523 6.50412 18.9509 6.92419C19.5651 6.85296 20.1685 6.70807 20.7482 6.49264C20.797 6.45942 20.8611 6.45942 20.9099 6.49264C20.9508 6.51134 20.9814 6.54711 20.9935 6.59042C21.0056 6.63373 20.998 6.68018 20.9728 6.7174Z" fill="white"/>
<path d="M43.084 5.242V6.278H40.424V15H39.15V6.278H36.476V5.242H43.084ZM54.8722 7.328L52.4782 15H51.1622L49.3142 8.91L47.4662 15H46.1502L43.7422 7.328H45.0442L46.8082 13.768L48.7122 7.328H50.0142L51.8762 13.782L53.6122 7.328H54.8722ZM56.7946 6.082C56.5519 6.082 56.3466 5.998 56.1786 5.83C56.0106 5.662 55.9266 5.45667 55.9266 5.214C55.9266 4.97133 56.0106 4.766 56.1786 4.598C56.3466 4.43 56.5519 4.346 56.7946 4.346C57.0279 4.346 57.2239 4.43 57.3826 4.598C57.5506 4.766 57.6346 4.97133 57.6346 5.214C57.6346 5.45667 57.5506 5.662 57.3826 5.83C57.2239 5.998 57.0279 6.082 56.7946 6.082ZM57.4106 7.328V15H56.1366V7.328H57.4106ZM61.1359 8.378V12.9C61.1359 13.2733 61.2152 13.5393 61.3739 13.698C61.5326 13.8473 61.8079 13.922 62.1999 13.922H63.1379V15H61.9899C61.2806 15 60.7486 14.8367 60.3939 14.51C60.0392 14.1833 59.8619 13.6467 59.8619 12.9V8.378H58.8679V7.328H59.8619V5.396H61.1359V7.328H63.1379V8.378H61.1359ZM66.2355 8.378V12.9C66.2355 13.2733 66.3148 13.5393 66.4735 13.698C66.6322 13.8473 66.9075 13.922 67.2995 13.922H68.2375V15H67.0895C66.3802 15 65.8482 14.8367 65.4935 14.51C65.1388 14.1833 64.9615 13.6467 64.9615 12.9V8.378H63.9675V7.328H64.9615V5.396H66.2355V7.328H68.2375V8.378H66.2355ZM76.7811 10.87C76.7811 11.1127 76.7671 11.3693 76.7391 11.64H70.6071C70.6538 12.396 70.9105 12.9887 71.3771 13.418C71.8531 13.838 72.4271 14.048 73.0991 14.048C73.6498 14.048 74.1071 13.922 74.4711 13.67C74.8445 13.4087 75.1058 13.0633 75.2551 12.634H76.6271C76.4218 13.3713 76.0111 13.9733 75.3951 14.44C74.7791 14.8973 74.0138 15.126 73.0991 15.126C72.3711 15.126 71.7178 14.9627 71.1391 14.636C70.5698 14.3093 70.1218 13.8473 69.7951 13.25C69.4685 12.6433 69.3051 11.9433 69.3051 11.15C69.3051 10.3567 69.4638 9.66133 69.7811 9.064C70.0985 8.46667 70.5418 8.00933 71.1111 7.692C71.6898 7.36533 72.3525 7.202 73.0991 7.202C73.8271 7.202 74.4711 7.36067 75.0311 7.678C75.5911 7.99533 76.0205 8.434 76.3191 8.994C76.6271 9.54467 76.7811 10.17 76.7811 10.87ZM75.4651 10.604C75.4651 10.1187 75.3578 9.70333 75.1431 9.358C74.9285 9.00333 74.6345 8.73733 74.2611 8.56C73.8971 8.37333 73.4911 8.28 73.0431 8.28C72.3991 8.28 71.8485 8.48533 71.3911 8.896C70.9431 9.30667 70.6865 9.876 70.6211 10.604H75.4651ZM79.7368 8.574C79.9608 8.13533 80.2781 7.79467 80.6888 7.552C81.1088 7.30933 81.6174 7.188 82.2148 7.188V8.504H81.8788C80.4508 8.504 79.7368 9.27867 79.7368 10.828V15H78.4628V7.328H79.7368V8.574Z" fill="white"/>
</svg>
