<svg width="100" height="32" viewBox="0 0 100 32" fill="none" xmlns="http://www.w3.org/2000/svg">
<g filter="url(#filter0_d_328_68)">
<path fill-rule="evenodd" clip-rule="evenodd" d="M9 3H23C24.1046 3 25 3.89543 25 5V19C25 20.1046 24.1046 21 23 21H9C7.89543 21 7 20.1046 7 19V5C7 3.89543 7.89543 3 9 3ZM12 18C12.2761 18 12.5 17.7761 12.5 17.5V10.5C12.5 10.2239 12.2761 10 12 10H10.5C10.2239 10 10 10.2239 10 10.5V17.5C10 17.7761 10.2239 18 10.5 18H12ZM11.25 9C10.4216 9 9.75 8.32843 9.75 7.5C9.75 6.67157 10.4216 6 11.25 6C12.0784 6 12.75 6.67157 12.75 7.5C12.75 8.32843 12.0784 9 11.25 9ZM21.5 18C21.7761 18 22 17.7761 22 17.5V12.9C22.0325 11.3108 20.8576 9.95452 19.28 9.76C18.177 9.65925 17.1083 10.1744 16.5 11.1V10.5C16.5 10.2239 16.2761 10 16 10H14.5C14.2239 10 14 10.2239 14 10.5V17.5C14 17.7761 14.2239 18 14.5 18H16C16.2761 18 16.5 17.7761 16.5 17.5V13.75C16.5 12.9216 17.1716 12.25 18 12.25C18.8284 12.25 19.5 12.9216 19.5 13.75V17.5C19.5 17.7761 19.7239 18 20 18H21.5Z" fill="white"/>
<path d="M42.352 13.964H45.768V15H41.078V5.242H42.352V13.964ZM47.779 6.082C47.5363 6.082 47.331 5.998 47.163 5.83C46.995 5.662 46.911 5.45667 46.911 5.214C46.911 4.97133 46.995 4.766 47.163 4.598C47.331 4.43 47.5363 4.346 47.779 4.346C48.0123 4.346 48.2083 4.43 48.367 4.598C48.535 4.766 48.619 4.97133 48.619 5.214C48.619 5.45667 48.535 5.662 48.367 5.83C48.2083 5.998 48.0123 6.082 47.779 6.082ZM48.395 7.328V15H47.121V7.328H48.395ZM54.3043 7.188C55.2376 7.188 55.9936 7.47267 56.5723 8.042C57.1509 8.602 57.4403 9.414 57.4403 10.478V15H56.1803V10.66C56.1803 9.89467 55.9889 9.31133 55.6063 8.91C55.2236 8.49933 54.7009 8.294 54.0383 8.294C53.3663 8.294 52.8296 8.504 52.4283 8.924C52.0363 9.344 51.8403 9.95533 51.8403 10.758V15H50.5663V7.328H51.8403V8.42C52.0923 8.028 52.4329 7.72467 52.8623 7.51C53.3009 7.29533 53.7816 7.188 54.3043 7.188ZM63.8054 15L60.7954 11.612V15H59.5214V4.64H60.7954V10.73L63.7494 7.328H65.5274L61.9154 11.15L65.5414 15H63.8054ZM73.7264 10.87C73.7264 11.1127 73.7124 11.3693 73.6844 11.64H67.5524C67.5991 12.396 67.8558 12.9887 68.3224 13.418C68.7984 13.838 69.3724 14.048 70.0444 14.048C70.5951 14.048 71.0524 13.922 71.4164 13.67C71.7898 13.4087 72.0511 13.0633 72.2004 12.634H73.5724C73.3671 13.3713 72.9564 13.9733 72.3404 14.44C71.7244 14.8973 70.9591 15.126 70.0444 15.126C69.3164 15.126 68.6631 14.9627 68.0844 14.636C67.5151 14.3093 67.0671 13.8473 66.7404 13.25C66.4138 12.6433 66.2504 11.9433 66.2504 11.15C66.2504 10.3567 66.4091 9.66133 66.7264 9.064C67.0438 8.46667 67.4871 8.00933 68.0564 7.692C68.6351 7.36533 69.2978 7.202 70.0444 7.202C70.7724 7.202 71.4164 7.36067 71.9764 7.678C72.5364 7.99533 72.9658 8.434 73.2644 8.994C73.5724 9.54467 73.7264 10.17 73.7264 10.87ZM72.4104 10.604C72.4104 10.1187 72.3031 9.70333 72.0884 9.358C71.8738 9.00333 71.5798 8.73733 71.2064 8.56C70.8424 8.37333 70.4364 8.28 69.9884 8.28C69.3444 8.28 68.7938 8.48533 68.3364 8.896C67.8884 9.30667 67.6318 9.876 67.5664 10.604H72.4104ZM74.9321 11.136C74.9321 10.352 75.0907 9.666 75.4081 9.078C75.7254 8.48067 76.1594 8.01867 76.7101 7.692C77.2701 7.36533 77.8954 7.202 78.5861 7.202C79.1834 7.202 79.7387 7.342 80.2521 7.622C80.7654 7.89267 81.1574 8.252 81.4281 8.7V4.64H82.7161V15H81.4281V13.558C81.1761 14.0153 80.8027 14.3933 80.3081 14.692C79.8134 14.9813 79.2347 15.126 78.5721 15.126C77.8907 15.126 77.2701 14.958 76.7101 14.622C76.1594 14.286 75.7254 13.8147 75.4081 13.208C75.0907 12.6013 74.9321 11.9107 74.9321 11.136ZM81.4281 11.15C81.4281 10.5713 81.3114 10.0673 81.0781 9.638C80.8447 9.20867 80.5274 8.882 80.1261 8.658C79.7341 8.42467 79.3001 8.308 78.8241 8.308C78.3481 8.308 77.9141 8.42 77.5221 8.644C77.1301 8.868 76.8174 9.19467 76.5841 9.624C76.3507 10.0533 76.2341 10.5573 76.2341 11.136C76.2341 11.724 76.3507 12.2373 76.5841 12.676C76.8174 13.1053 77.1301 13.4367 77.5221 13.67C77.9141 13.894 78.3481 14.006 78.8241 14.006C79.3001 14.006 79.7341 13.894 80.1261 13.67C80.5274 13.4367 80.8447 13.1053 81.0781 12.676C81.3114 12.2373 81.4281 11.7287 81.4281 11.15ZM86.143 5.242V15H84.869V5.242H86.143ZM92.0523 7.188C92.9857 7.188 93.7417 7.47267 94.3203 8.042C94.899 8.602 95.1883 9.414 95.1883 10.478V15H93.9283V10.66C93.9283 9.89467 93.737 9.31133 93.3543 8.91C92.9717 8.49933 92.449 8.294 91.7863 8.294C91.1143 8.294 90.5777 8.504 90.1763 8.924C89.7843 9.344 89.5883 9.95533 89.5883 10.758V15H88.3143V7.328H89.5883V8.42C89.8403 8.028 90.181 7.72467 90.6103 7.51C91.049 7.29533 91.5297 7.188 92.0523 7.188Z" fill="white"/>
</g>
<defs>
<filter id="filter0_d_328_68" x="0" y="0" width="99.1884" height="32" filterUnits="userSpaceOnUse" color-interpolation-filters="sRGB">
<feFlood flood-opacity="0" result="BackgroundImageFix"/>
<feColorMatrix in="SourceAlpha" type="matrix" values="0 0 0 0 0 0 0 0 0 0 0 0 0 0 0 0 0 0 127 0" result="hardAlpha"/>
<feOffset dy="4"/>
<feGaussianBlur stdDeviation="2"/>
<feComposite in2="hardAlpha" operator="out"/>
<feColorMatrix type="matrix" values="0 0 0 0 0 0 0 0 0 0 0 0 0 0 0 0 0 0 0.25 0"/>
<feBlend mode="normal" in2="BackgroundImageFix" result="effect1_dropShadow_328_68"/>
<feBlend mode="normal" in="SourceGraphic" in2="effect1_dropShadow_328_68" result="shape"/>
</filter>
</defs>
</svg>
