<svg width="105" height="24" viewBox="0 0 105 24" fill="none" xmlns="http://www.w3.org/2000/svg">
<path d="M16.5 6H13.5C12.9477 6 12.5 6.44772 12.5 7V10H16.5C16.6137 9.99748 16.7216 10.0504 16.7892 10.1419C16.8568 10.2334 16.8758 10.352 16.84 10.46L16.1 12.66C16.0318 12.8619 15.8431 12.9984 15.63 13H12.5V20.5C12.5 20.7761 12.2761 21 12 21H9.5C9.22386 21 9 20.7761 9 20.5V13H7.5C7.22386 13 7 12.7761 7 12.5V10.5C7 10.2239 7.22386 10 7.5 10H9V7C9 4.79086 10.7909 3 13 3H16.5C16.7761 3 17 3.22386 17 3.5V5.5C17 5.77614 16.7761 6 16.5 6Z" fill="white"/>
<path d="M42.594 5.242V6.278H38.352V9.568H41.796V10.604H38.352V15H37.078V5.242H42.594ZM43.6567 11.136C43.6567 10.352 43.8154 9.666 44.1327 9.078C44.45 8.48067 44.884 8.01867 45.4347 7.692C45.9947 7.36533 46.6154 7.202 47.2967 7.202C47.9687 7.202 48.552 7.34667 49.0467 7.636C49.5414 7.92533 49.91 8.28933 50.1527 8.728V7.328H51.4407V15H50.1527V13.572C49.9007 14.02 49.5227 14.3933 49.0187 14.692C48.524 14.9813 47.9454 15.126 47.2827 15.126C46.6014 15.126 45.9854 14.958 45.4347 14.622C44.884 14.286 44.45 13.8147 44.1327 13.208C43.8154 12.6013 43.6567 11.9107 43.6567 11.136ZM50.1527 11.15C50.1527 10.5713 50.036 10.0673 49.8027 9.638C49.5694 9.20867 49.252 8.882 48.8507 8.658C48.4587 8.42467 48.0247 8.308 47.5487 8.308C47.0727 8.308 46.6387 8.42 46.2467 8.644C45.8547 8.868 45.542 9.19467 45.3087 9.624C45.0754 10.0533 44.9587 10.5573 44.9587 11.136C44.9587 11.724 45.0754 12.2373 45.3087 12.676C45.542 13.1053 45.8547 13.4367 46.2467 13.67C46.6387 13.894 47.0727 14.006 47.5487 14.006C48.0247 14.006 48.4587 13.894 48.8507 13.67C49.252 13.4367 49.5694 13.1053 49.8027 12.676C50.036 12.2373 50.1527 11.7287 50.1527 11.15ZM53.1176 11.15C53.1176 10.3567 53.2763 9.666 53.5936 9.078C53.911 8.48067 54.3496 8.01867 54.9096 7.692C55.479 7.36533 56.1276 7.202 56.8556 7.202C57.7983 7.202 58.573 7.43067 59.1796 7.888C59.7956 8.34533 60.2016 8.98 60.3976 9.792H59.0256C58.895 9.32533 58.6383 8.95667 58.2556 8.686C57.8823 8.41533 57.4156 8.28 56.8556 8.28C56.1276 8.28 55.5396 8.532 55.0916 9.036C54.6436 9.53067 54.4196 10.2353 54.4196 11.15C54.4196 12.074 54.6436 12.788 55.0916 13.292C55.5396 13.796 56.1276 14.048 56.8556 14.048C57.4156 14.048 57.8823 13.9173 58.2556 13.656C58.629 13.3947 58.8856 13.0213 59.0256 12.536H60.3976C60.1923 13.32 59.7816 13.95 59.1656 14.426C58.5496 14.8927 57.7796 15.126 56.8556 15.126C56.1276 15.126 55.479 14.9627 54.9096 14.636C54.3496 14.3093 53.911 13.8473 53.5936 13.25C53.2763 12.6527 53.1176 11.9527 53.1176 11.15ZM69.0975 10.87C69.0975 11.1127 69.0835 11.3693 69.0555 11.64H62.9235C62.9702 12.396 63.2269 12.9887 63.6935 13.418C64.1695 13.838 64.7435 14.048 65.4155 14.048C65.9662 14.048 66.4235 13.922 66.7875 13.67C67.1609 13.4087 67.4222 13.0633 67.5715 12.634H68.9435C68.7382 13.3713 68.3275 13.9733 67.7115 14.44C67.0955 14.8973 66.3302 15.126 65.4155 15.126C64.6875 15.126 64.0342 14.9627 63.4555 14.636C62.8862 14.3093 62.4382 13.8473 62.1115 13.25C61.7849 12.6433 61.6215 11.9433 61.6215 11.15C61.6215 10.3567 61.7802 9.66133 62.0975 9.064C62.4149 8.46667 62.8582 8.00933 63.4275 7.692C64.0062 7.36533 64.6689 7.202 65.4155 7.202C66.1435 7.202 66.7875 7.36067 67.3475 7.678C67.9075 7.99533 68.3369 8.434 68.6355 8.994C68.9435 9.54467 69.0975 10.17 69.0975 10.87ZM67.7815 10.604C67.7815 10.1187 67.6742 9.70333 67.4595 9.358C67.2449 9.00333 66.9509 8.73733 66.5775 8.56C66.2135 8.37333 65.8075 8.28 65.3595 8.28C64.7155 8.28 64.1649 8.48533 63.7075 8.896C63.2595 9.30667 63.0029 9.876 62.9375 10.604H67.7815ZM72.0532 8.756C72.3145 8.29867 72.6972 7.92533 73.2012 7.636C73.7052 7.34667 74.2792 7.202 74.9232 7.202C75.6138 7.202 76.2345 7.36533 76.7852 7.692C77.3358 8.01867 77.7698 8.48067 78.0872 9.078C78.4045 9.666 78.5632 10.352 78.5632 11.136C78.5632 11.9107 78.4045 12.6013 78.0872 13.208C77.7698 13.8147 77.3312 14.286 76.7712 14.622C76.2205 14.958 75.6045 15.126 74.9232 15.126C74.2605 15.126 73.6772 14.9813 73.1732 14.692C72.6785 14.4027 72.3052 14.034 72.0532 13.586V15H70.7792V4.64H72.0532V8.756ZM77.2612 11.136C77.2612 10.5573 77.1445 10.0533 76.9112 9.624C76.6778 9.19467 76.3605 8.868 75.9592 8.644C75.5672 8.42 75.1332 8.308 74.6572 8.308C74.1905 8.308 73.7565 8.42467 73.3552 8.658C72.9632 8.882 72.6458 9.21333 72.4032 9.652C72.1698 10.0813 72.0532 10.5807 72.0532 11.15C72.0532 11.7287 72.1698 12.2373 72.4032 12.676C72.6458 13.1053 72.9632 13.4367 73.3552 13.67C73.7565 13.894 74.1905 14.006 74.6572 14.006C75.1332 14.006 75.5672 13.894 75.9592 13.67C76.3605 13.4367 76.6778 13.1053 76.9112 12.676C77.1445 12.2373 77.2612 11.724 77.2612 11.136ZM83.5861 15.126C82.8674 15.126 82.2141 14.9627 81.6261 14.636C81.0474 14.3093 80.5901 13.8473 80.2541 13.25C79.9274 12.6433 79.7641 11.9433 79.7641 11.15C79.7641 10.366 79.9321 9.67533 80.2681 9.078C80.6134 8.47133 81.0801 8.00933 81.6681 7.692C82.2561 7.36533 82.9141 7.202 83.6421 7.202C84.3701 7.202 85.0281 7.36533 85.6161 7.692C86.2041 8.00933 86.6661 8.46667 87.0021 9.064C87.3474 9.66133 87.5201 10.3567 87.5201 11.15C87.5201 11.9433 87.3428 12.6433 86.9881 13.25C86.6428 13.8473 86.1714 14.3093 85.5741 14.636C84.9768 14.9627 84.3141 15.126 83.5861 15.126ZM83.5861 14.006C84.0434 14.006 84.4728 13.8987 84.8741 13.684C85.2754 13.4693 85.5974 13.1473 85.8401 12.718C86.0921 12.2887 86.2181 11.766 86.2181 11.15C86.2181 10.534 86.0968 10.0113 85.8541 9.582C85.6114 9.15267 85.2941 8.83533 84.9021 8.63C84.5101 8.41533 84.0854 8.308 83.6281 8.308C83.1614 8.308 82.7321 8.41533 82.3401 8.63C81.9574 8.83533 81.6494 9.15267 81.4161 9.582C81.1828 10.0113 81.0661 10.534 81.0661 11.15C81.0661 11.7753 81.1781 12.3027 81.4021 12.732C81.6354 13.1613 81.9434 13.4833 82.3261 13.698C82.7088 13.9033 83.1288 14.006 83.5861 14.006ZM92.5412 15.126C91.8225 15.126 91.1692 14.9627 90.5812 14.636C90.0025 14.3093 89.5452 13.8473 89.2092 13.25C88.8825 12.6433 88.7192 11.9433 88.7192 11.15C88.7192 10.366 88.8872 9.67533 89.2232 9.078C89.5685 8.47133 90.0352 8.00933 90.6232 7.692C91.2112 7.36533 91.8692 7.202 92.5972 7.202C93.3252 7.202 93.9832 7.36533 94.5712 7.692C95.1592 8.00933 95.6212 8.46667 95.9572 9.064C96.3025 9.66133 96.4752 10.3567 96.4752 11.15C96.4752 11.9433 96.2979 12.6433 95.9432 13.25C95.5979 13.8473 95.1265 14.3093 94.5292 14.636C93.9319 14.9627 93.2692 15.126 92.5412 15.126ZM92.5412 14.006C92.9985 14.006 93.4279 13.8987 93.8292 13.684C94.2305 13.4693 94.5525 13.1473 94.7952 12.718C95.0472 12.2887 95.1732 11.766 95.1732 11.15C95.1732 10.534 95.0519 10.0113 94.8092 9.582C94.5665 9.15267 94.2492 8.83533 93.8572 8.63C93.4652 8.41533 93.0405 8.308 92.5832 8.308C92.1165 8.308 91.6872 8.41533 91.2952 8.63C90.9125 8.83533 90.6045 9.15267 90.3712 9.582C90.1379 10.0113 90.0212 10.534 90.0212 11.15C90.0212 11.7753 90.1332 12.3027 90.3572 12.732C90.5905 13.1613 90.8985 13.4833 91.2812 13.698C91.6639 13.9033 92.0839 14.006 92.5412 14.006ZM102.434 15L99.4243 11.612V15H98.1503V4.64H99.4243V10.73L102.378 7.328H104.156L100.544 11.15L104.17 15H102.434Z" fill="white"/>
</svg>
