<svg width="35" height="34" viewBox="0 0 35 34" fill="none" xmlns="http://www.w3.org/2000/svg">
<rect x="0.85199" width="33.4653" height="33.4653" rx="12" fill="white"/>
<path d="M22.3644 10.7078C21.7177 10.7078 21.2865 11.149 21.2865 11.8109C21.2865 12.4728 21.8254 12.914 22.3644 12.914C23.0111 12.914 23.4423 12.4728 23.4423 11.8109C23.4423 11.2593 23.0111 10.7078 22.3644 10.7078Z" fill="#F05226"/>
<path d="M17.6229 12.1445C15.1438 12.1445 13.0958 14.2405 13.0958 16.7776C13.0958 19.3148 15.1438 21.4107 17.6229 21.4107C20.1021 21.4107 22.1501 19.3148 22.1501 16.7776C22.1501 14.2405 20.1021 12.1445 17.6229 12.1445ZM17.6229 19.756C16.0061 19.756 14.7126 18.4323 14.7126 16.7776C14.7126 15.1229 16.0061 13.7992 17.6229 13.7992C19.2398 13.7992 20.5333 15.1229 20.5333 16.7776C20.5333 18.4323 19.2398 19.756 17.6229 19.756Z" fill="#F05226"/>
<path d="M21.1801 26.2637H13.8504C10.8323 26.2637 8.35309 23.7266 8.35309 20.6378V13.1366C8.35309 10.0479 10.8323 7.51074 13.8504 7.51074H21.1801C24.1982 7.51074 26.6773 10.0479 26.6773 13.1366V20.5275C26.7851 23.7266 24.306 26.2637 21.1801 26.2637ZM13.8504 9.16542C11.6946 9.16542 10.0777 10.9304 10.0777 13.0263V20.5275C10.0777 22.7337 11.8024 24.3884 13.8504 24.3884H21.1801C23.3359 24.3884 24.9527 22.6234 24.9527 20.5275V13.0263C24.9527 10.8201 23.2281 9.16542 21.1801 9.16542H13.8504Z" fill="#F05226"/>
</svg>
