<svg width="124" height="44" viewBox="0 0 124 44" fill="none" xmlns="http://www.w3.org/2000/svg">
<g filter="url(#filter0_d_2022_64)">
<rect x="4" width="116" height="36" rx="4" fill="#E75D43"/>
</g>
<path d="M17.036 23V13.2H20.2C20.9653 13.2 21.5907 13.326 22.076 13.578C22.5613 13.83 22.9207 14.1753 23.154 14.614C23.3873 15.0527 23.504 15.538 23.504 16.07C23.504 16.686 23.336 17.2413 23 17.736C22.6733 18.2307 22.16 18.5807 21.46 18.786L23.602 23H22.216L20.228 18.954H20.144H18.212V23H17.036ZM18.212 18.03H20.116C20.872 18.03 21.4227 17.848 21.768 17.484C22.1133 17.12 22.286 16.6533 22.286 16.084C22.286 15.5053 22.1133 15.048 21.768 14.712C21.432 14.3667 20.8767 14.194 20.102 14.194H18.212V18.03ZM27.963 23.168C27.3003 23.168 26.7123 23.0187 26.199 22.72C25.6857 22.412 25.2797 21.9873 24.981 21.446C24.6917 20.9047 24.547 20.2653 24.547 19.528C24.547 18.8 24.6917 18.1653 24.981 17.624C25.2703 17.0733 25.6717 16.6487 26.185 16.35C26.7077 16.042 27.3097 15.888 27.991 15.888C28.663 15.888 29.2417 16.042 29.727 16.35C30.2217 16.6487 30.5997 17.0453 30.861 17.54C31.1223 18.0347 31.253 18.5667 31.253 19.136C31.253 19.2387 31.2483 19.3413 31.239 19.444C31.239 19.5467 31.239 19.6633 31.239 19.794H25.709C25.737 20.326 25.8583 20.7693 26.073 21.124C26.297 21.4693 26.5723 21.7307 26.899 21.908C27.235 22.0853 27.5897 22.174 27.963 22.174C28.4483 22.174 28.8543 22.062 29.181 21.838C29.5077 21.614 29.7457 21.3107 29.895 20.928H31.057C30.8703 21.572 30.511 22.1087 29.979 22.538C29.4563 22.958 28.7843 23.168 27.963 23.168ZM27.963 16.882C27.403 16.882 26.9037 17.0547 26.465 17.4C26.0357 17.736 25.7883 18.2307 25.723 18.884H30.091C30.063 18.2587 29.8483 17.7687 29.447 17.414C29.0457 17.0593 28.551 16.882 27.963 16.882ZM35.1217 23.168C34.543 23.168 34.0624 23.07 33.6797 22.874C33.297 22.678 33.0124 22.4167 32.8257 22.09C32.639 21.7633 32.5457 21.4087 32.5457 21.026C32.5457 20.3167 32.8164 19.7707 33.3577 19.388C33.899 19.0053 34.6364 18.814 35.5697 18.814H37.4457V18.73C37.4457 18.1233 37.287 17.666 36.9697 17.358C36.6524 17.0407 36.2277 16.882 35.6957 16.882C35.2384 16.882 34.8417 16.9987 34.5057 17.232C34.179 17.456 33.9737 17.7873 33.8897 18.226H32.6857C32.7324 17.722 32.9004 17.2973 33.1897 16.952C33.4884 16.6067 33.857 16.3453 34.2957 16.168C34.7344 15.9813 35.201 15.888 35.6957 15.888C36.6664 15.888 37.3944 16.1493 37.8797 16.672C38.3744 17.1853 38.6217 17.8713 38.6217 18.73V23H37.5717L37.5017 21.754C37.3057 22.146 37.0164 22.482 36.6337 22.762C36.2604 23.0327 35.7564 23.168 35.1217 23.168ZM35.3037 22.174C35.7517 22.174 36.1344 22.0573 36.4517 21.824C36.7784 21.5907 37.0257 21.2873 37.1937 20.914C37.3617 20.5407 37.4457 20.1487 37.4457 19.738V19.724H35.6677C34.977 19.724 34.487 19.8453 34.1977 20.088C33.9177 20.3213 33.7777 20.6153 33.7777 20.97C33.7777 21.334 33.9084 21.628 34.1697 21.852C34.4404 22.0667 34.8184 22.174 35.3037 22.174ZM43.5359 23.168C42.8453 23.168 42.2386 23.0093 41.7159 22.692C41.2026 22.3747 40.8013 21.9407 40.5119 21.39C40.2319 20.8393 40.0919 20.214 40.0919 19.514C40.0919 18.814 40.2366 18.1933 40.5259 17.652C40.8153 17.1013 41.2166 16.672 41.7299 16.364C42.2433 16.0467 42.8499 15.888 43.5499 15.888C44.1193 15.888 44.6233 16.0047 45.0619 16.238C45.5006 16.4713 45.8413 16.798 46.0839 17.218V12.92H47.2599V23H46.1959L46.0839 21.852C45.8599 22.188 45.5379 22.4913 45.1179 22.762C44.6979 23.0327 44.1706 23.168 43.5359 23.168ZM43.6619 22.146C44.1286 22.146 44.5393 22.0387 44.8939 21.824C45.2579 21.6 45.5379 21.292 45.7339 20.9C45.9393 20.508 46.0419 20.0507 46.0419 19.528C46.0419 19.0053 45.9393 18.548 45.7339 18.156C45.5379 17.764 45.2579 17.4607 44.8939 17.246C44.5393 17.022 44.1286 16.91 43.6619 16.91C43.2046 16.91 42.7939 17.022 42.4299 17.246C42.0753 17.4607 41.7953 17.764 41.5899 18.156C41.3939 18.548 41.2959 19.0053 41.2959 19.528C41.2959 20.0507 41.3939 20.508 41.5899 20.9C41.7953 21.292 42.0753 21.6 42.4299 21.824C42.7939 22.0387 43.2046 22.146 43.6619 22.146ZM52.882 23V16.056H53.946L54.03 17.064C54.254 16.6907 54.5527 16.4013 54.926 16.196C55.2993 15.9907 55.7193 15.888 56.186 15.888C56.7367 15.888 57.208 16 57.6 16.224C58.0013 16.448 58.3093 16.7887 58.524 17.246C58.7667 16.826 59.098 16.4947 59.518 16.252C59.9473 16.0093 60.4093 15.888 60.904 15.888C61.7347 15.888 62.3973 16.14 62.892 16.644C63.3867 17.1387 63.634 17.904 63.634 18.94V23H62.472V19.066C62.472 18.3473 62.3273 17.806 62.038 17.442C61.7487 17.078 61.3333 16.896 60.792 16.896C60.232 16.896 59.7653 17.1153 59.392 17.554C59.028 17.9833 58.846 18.5993 58.846 19.402V23H57.67V19.066C57.67 18.3473 57.5253 17.806 57.236 17.442C56.9467 17.078 56.5313 16.896 55.99 16.896C55.4393 16.896 54.9773 17.1153 54.604 17.554C54.24 17.9833 54.058 18.5993 54.058 19.402V23H52.882ZM68.5695 23.168C67.9161 23.168 67.3281 23.0187 66.8055 22.72C66.2828 22.4213 65.8675 22.0013 65.5595 21.46C65.2608 20.9093 65.1115 20.2653 65.1115 19.528C65.1115 18.7907 65.2655 18.1513 65.5735 17.61C65.8815 17.0593 66.2968 16.6347 66.8195 16.336C67.3515 16.0373 67.9441 15.888 68.5975 15.888C69.2508 15.888 69.8388 16.0373 70.3615 16.336C70.8841 16.6347 71.2948 17.0593 71.5935 17.61C71.9015 18.1513 72.0555 18.7907 72.0555 19.528C72.0555 20.2653 71.9015 20.9093 71.5935 21.46C71.2855 22.0013 70.8655 22.4213 70.3335 22.72C69.8108 23.0187 69.2228 23.168 68.5695 23.168ZM68.5695 22.16C68.9708 22.16 69.3441 22.062 69.6895 21.866C70.0348 21.67 70.3148 21.376 70.5295 20.984C70.7441 20.592 70.8515 20.1067 70.8515 19.528C70.8515 18.9493 70.7441 18.464 70.5295 18.072C70.3241 17.68 70.0488 17.386 69.7035 17.19C69.3581 16.994 68.9895 16.896 68.5975 16.896C68.1961 16.896 67.8228 16.994 67.4775 17.19C67.1321 17.386 66.8521 17.68 66.6375 18.072C66.4228 18.464 66.3155 18.9493 66.3155 19.528C66.3155 20.1067 66.4228 20.592 66.6375 20.984C66.8521 21.376 67.1275 21.67 67.4635 21.866C67.8088 22.062 68.1775 22.16 68.5695 22.16ZM73.6906 23V16.056H74.7546L74.8526 17.386C75.0673 16.9287 75.3939 16.5647 75.8326 16.294C76.2713 16.0233 76.8126 15.888 77.4566 15.888V17.12H77.1346C76.7239 17.12 76.3459 17.1947 76.0006 17.344C75.6553 17.484 75.3799 17.7267 75.1746 18.072C74.9693 18.4173 74.8666 18.8933 74.8666 19.5V23H73.6906ZM81.6388 23.168C80.9761 23.168 80.3881 23.0187 79.8748 22.72C79.3614 22.412 78.9554 21.9873 78.6568 21.446C78.3674 20.9047 78.2228 20.2653 78.2228 19.528C78.2228 18.8 78.3674 18.1653 78.6568 17.624C78.9461 17.0733 79.3474 16.6487 79.8608 16.35C80.3834 16.042 80.9854 15.888 81.6668 15.888C82.3388 15.888 82.9174 16.042 83.4028 16.35C83.8974 16.6487 84.2754 17.0453 84.5368 17.54C84.7981 18.0347 84.9288 18.5667 84.9288 19.136C84.9288 19.2387 84.9241 19.3413 84.9148 19.444C84.9148 19.5467 84.9148 19.6633 84.9148 19.794H79.3848C79.4128 20.326 79.5341 20.7693 79.7488 21.124C79.9728 21.4693 80.2481 21.7307 80.5748 21.908C80.9108 22.0853 81.2654 22.174 81.6388 22.174C82.1241 22.174 82.5301 22.062 82.8568 21.838C83.1834 21.614 83.4214 21.3107 83.5708 20.928H84.7328C84.5461 21.572 84.1868 22.1087 83.6548 22.538C83.1321 22.958 82.4601 23.168 81.6388 23.168ZM81.6388 16.882C81.0788 16.882 80.5794 17.0547 80.1408 17.4C79.7114 17.736 79.4641 18.2307 79.3988 18.884H83.7668C83.7388 18.2587 83.5241 17.7687 83.1228 17.414C82.7214 17.0593 82.2268 16.882 81.6388 16.882Z" fill="white"/>
<g clip-path="url(#clip0_2022_64)">
<path d="M106.424 19.0007C106.557 18.8679 106.632 18.6878 106.632 18.5C106.632 18.3121 106.557 18.132 106.424 17.9992L102.417 13.9921C102.352 13.9245 102.274 13.8705 102.187 13.8334C102.101 13.7963 102.008 13.7767 101.914 13.7759C101.82 13.7751 101.726 13.793 101.639 13.8286C101.552 13.8642 101.473 13.9168 101.407 13.9833C101.34 14.0499 101.288 14.1289 101.252 14.216C101.216 14.303 101.198 14.3963 101.199 14.4904C101.2 14.5844 101.22 14.6774 101.257 14.7638C101.294 14.8502 101.348 14.9284 101.415 14.9937L104.213 17.7916H94.8329C94.6451 17.7916 94.4649 17.8663 94.3321 17.9991C94.1992 18.1319 94.1246 18.3121 94.1246 18.5C94.1246 18.6878 94.1992 18.868 94.3321 19.0008C94.4649 19.1337 94.6451 19.2083 94.8329 19.2083H104.213L101.415 22.0062C101.286 22.1398 101.215 22.3187 101.217 22.5044C101.218 22.6902 101.293 22.8678 101.424 22.9992C101.555 23.1305 101.733 23.205 101.919 23.2066C102.105 23.2082 102.283 23.1368 102.417 23.0078L106.424 19.0007Z" fill="white"/>
</g>
<defs>
<filter id="filter0_d_2022_64" x="0" y="0" width="124" height="44" filterUnits="userSpaceOnUse" color-interpolation-filters="sRGB">
<feFlood flood-opacity="0" result="BackgroundImageFix"/>
<feColorMatrix in="SourceAlpha" type="matrix" values="0 0 0 0 0 0 0 0 0 0 0 0 0 0 0 0 0 0 127 0" result="hardAlpha"/>
<feOffset dy="4"/>
<feGaussianBlur stdDeviation="2"/>
<feComposite in2="hardAlpha" operator="out"/>
<feColorMatrix type="matrix" values="0 0 0 0 0 0 0 0 0 0 0 0 0 0 0 0 0 0 0.25 0"/>
<feBlend mode="normal" in2="BackgroundImageFix" result="effect1_dropShadow_2022_64"/>
<feBlend mode="normal" in="SourceGraphic" in2="effect1_dropShadow_2022_64" result="shape"/>
</filter>
<clipPath id="clip0_2022_64">
<rect width="17" height="17" fill="white" transform="matrix(0 1 -1 0 109 10)"/>
</clipPath>
</defs>
</svg>
