<svg width="124" height="44" viewBox="0 0 124 44" fill="none" xmlns="http://www.w3.org/2000/svg">
<g filter="url(#filter0_d_2027_67)">
<rect x="4" width="116" height="36" rx="4" fill="#E75D43"/>
</g>
<path d="M20.158 23.168C19.4393 23.168 18.814 23.0373 18.282 22.776C17.75 22.5147 17.3393 22.1507 17.05 21.684C16.7607 21.2173 16.616 20.676 16.616 20.06H17.848C17.848 20.4427 17.9367 20.7973 18.114 21.124C18.2913 21.4413 18.548 21.698 18.884 21.894C19.2293 22.0807 19.654 22.174 20.158 22.174C20.8207 22.174 21.334 22.0153 21.698 21.698C22.062 21.3807 22.244 20.984 22.244 20.508C22.244 20.116 22.16 19.8033 21.992 19.57C21.824 19.3273 21.5953 19.1313 21.306 18.982C21.026 18.8327 20.6993 18.702 20.326 18.59C19.962 18.478 19.5793 18.352 19.178 18.212C18.422 17.9507 17.862 17.6287 17.498 17.246C17.134 16.854 16.952 16.3453 16.952 15.72C16.9427 15.1973 17.064 14.7353 17.316 14.334C17.568 13.9233 17.9227 13.606 18.38 13.382C18.8467 13.1487 19.3973 13.032 20.032 13.032C20.6573 13.032 21.1987 13.1487 21.656 13.382C22.1227 13.6153 22.482 13.9373 22.734 14.348C22.9953 14.7587 23.1307 15.2253 23.14 15.748H21.908C21.908 15.4773 21.838 15.2113 21.698 14.95C21.558 14.6793 21.3433 14.46 21.054 14.292C20.774 14.124 20.4193 14.04 19.99 14.04C19.458 14.0307 19.0193 14.166 18.674 14.446C18.338 14.726 18.17 15.1133 18.17 15.608C18.17 16.028 18.2867 16.35 18.52 16.574C18.7627 16.798 19.0987 16.9847 19.528 17.134C19.9573 17.274 20.452 17.4373 21.012 17.624C21.4787 17.792 21.8987 17.988 22.272 18.212C22.6453 18.436 22.9347 18.7253 23.14 19.08C23.3547 19.4347 23.462 19.8873 23.462 20.438C23.462 20.9047 23.3407 21.348 23.098 21.768C22.8553 22.1787 22.4867 22.5147 21.992 22.776C21.5067 23.0373 20.8953 23.168 20.158 23.168ZM25.0598 23V12.92H26.2358V17.246C26.4691 16.8167 26.8004 16.4853 27.2298 16.252C27.6591 16.0093 28.1258 15.888 28.6298 15.888C29.4324 15.888 30.0764 16.14 30.5618 16.644C31.0471 17.1387 31.2897 17.904 31.2897 18.94V23H30.1278V19.066C30.1278 17.6193 29.5444 16.896 28.3778 16.896C27.7711 16.896 27.2624 17.1153 26.8518 17.554C26.4411 17.9833 26.2358 18.5993 26.2358 19.402V23H25.0598ZM36.2355 23.168C35.5821 23.168 34.9941 23.0187 34.4715 22.72C33.9488 22.4213 33.5335 22.0013 33.2255 21.46C32.9268 20.9093 32.7775 20.2653 32.7775 19.528C32.7775 18.7907 32.9315 18.1513 33.2395 17.61C33.5475 17.0593 33.9628 16.6347 34.4855 16.336C35.0175 16.0373 35.6101 15.888 36.2635 15.888C36.9168 15.888 37.5048 16.0373 38.0275 16.336C38.5501 16.6347 38.9608 17.0593 39.2595 17.61C39.5675 18.1513 39.7215 18.7907 39.7215 19.528C39.7215 20.2653 39.5675 20.9093 39.2595 21.46C38.9515 22.0013 38.5315 22.4213 37.9995 22.72C37.4768 23.0187 36.8888 23.168 36.2355 23.168ZM36.2355 22.16C36.6368 22.16 37.0101 22.062 37.3555 21.866C37.7008 21.67 37.9808 21.376 38.1955 20.984C38.4101 20.592 38.5175 20.1067 38.5175 19.528C38.5175 18.9493 38.4101 18.464 38.1955 18.072C37.9901 17.68 37.7148 17.386 37.3695 17.19C37.0241 16.994 36.6555 16.896 36.2635 16.896C35.8621 16.896 35.4888 16.994 35.1435 17.19C34.7981 17.386 34.5181 17.68 34.3035 18.072C34.0888 18.464 33.9815 18.9493 33.9815 19.528C33.9815 20.1067 34.0888 20.592 34.3035 20.984C34.5181 21.376 34.7935 21.67 35.1295 21.866C35.4748 22.062 35.8435 22.16 36.2355 22.16ZM42.4969 23L40.4669 16.056H41.6429L43.1129 21.502L44.7369 16.056H46.0669L47.7049 21.502L49.1609 16.056H50.3509L48.3209 23H47.1169L45.4089 17.274L43.7009 23H42.4969ZM55.4266 23V13.2H56.6026V22.062H61.1666V23H55.4266ZM65.5333 23.168C64.8706 23.168 64.2826 23.0187 63.7693 22.72C63.256 22.412 62.85 21.9873 62.5513 21.446C62.262 20.9047 62.1173 20.2653 62.1173 19.528C62.1173 18.8 62.262 18.1653 62.5513 17.624C62.8406 17.0733 63.242 16.6487 63.7553 16.35C64.278 16.042 64.88 15.888 65.5613 15.888C66.2333 15.888 66.812 16.042 67.2973 16.35C67.792 16.6487 68.17 17.0453 68.4313 17.54C68.6926 18.0347 68.8233 18.5667 68.8233 19.136C68.8233 19.2387 68.8186 19.3413 68.8093 19.444C68.8093 19.5467 68.8093 19.6633 68.8093 19.794H63.2793C63.3073 20.326 63.4286 20.7693 63.6433 21.124C63.8673 21.4693 64.1426 21.7307 64.4693 21.908C64.8053 22.0853 65.16 22.174 65.5333 22.174C66.0186 22.174 66.4246 22.062 66.7513 21.838C67.078 21.614 67.316 21.3107 67.4653 20.928H68.6273C68.4406 21.572 68.0813 22.1087 67.5493 22.538C67.0266 22.958 66.3546 23.168 65.5333 23.168ZM65.5333 16.882C64.9733 16.882 64.474 17.0547 64.0353 17.4C63.606 17.736 63.3586 18.2307 63.2933 18.884H67.6613C67.6333 18.2587 67.4186 17.7687 67.0173 17.414C66.616 17.0593 66.1213 16.882 65.5333 16.882ZM73.042 23.168C72.2113 23.168 71.5207 22.958 70.97 22.538C70.4193 22.118 70.0973 21.5487 70.004 20.83H71.208C71.2827 21.194 71.474 21.5113 71.782 21.782C72.0993 22.0433 72.524 22.174 73.056 22.174C73.5507 22.174 73.9147 22.0713 74.148 21.866C74.3813 21.6513 74.498 21.3993 74.498 21.11C74.498 20.69 74.344 20.41 74.036 20.27C73.7373 20.13 73.3127 20.004 72.762 19.892C72.3887 19.8173 72.0153 19.71 71.642 19.57C71.2687 19.43 70.956 19.234 70.704 18.982C70.452 18.7207 70.326 18.38 70.326 17.96C70.326 17.3533 70.55 16.8587 70.998 16.476C71.4553 16.084 72.0713 15.888 72.846 15.888C73.5833 15.888 74.1853 16.0747 74.652 16.448C75.128 16.812 75.4033 17.3347 75.478 18.016H74.316C74.2693 17.6613 74.1153 17.386 73.854 17.19C73.602 16.9847 73.2613 16.882 72.832 16.882C72.412 16.882 72.0853 16.9707 71.852 17.148C71.628 17.3253 71.516 17.5587 71.516 17.848C71.516 18.128 71.6607 18.3473 71.95 18.506C72.2487 18.6647 72.65 18.8 73.154 18.912C73.5833 19.0053 73.9893 19.122 74.372 19.262C74.764 19.3927 75.0813 19.5933 75.324 19.864C75.576 20.1253 75.702 20.508 75.702 21.012C75.7113 21.6373 75.4733 22.1553 74.988 22.566C74.512 22.9673 73.8633 23.168 73.042 23.168ZM80.042 23.168C79.2113 23.168 78.5207 22.958 77.97 22.538C77.4193 22.118 77.0973 21.5487 77.004 20.83H78.208C78.2827 21.194 78.474 21.5113 78.782 21.782C79.0993 22.0433 79.524 22.174 80.056 22.174C80.5507 22.174 80.9147 22.0713 81.148 21.866C81.3813 21.6513 81.498 21.3993 81.498 21.11C81.498 20.69 81.344 20.41 81.036 20.27C80.7373 20.13 80.3127 20.004 79.762 19.892C79.3887 19.8173 79.0153 19.71 78.642 19.57C78.2687 19.43 77.956 19.234 77.704 18.982C77.452 18.7207 77.326 18.38 77.326 17.96C77.326 17.3533 77.55 16.8587 77.998 16.476C78.4553 16.084 79.0713 15.888 79.846 15.888C80.5833 15.888 81.1853 16.0747 81.652 16.448C82.128 16.812 82.4033 17.3347 82.478 18.016H81.316C81.2693 17.6613 81.1153 17.386 80.854 17.19C80.602 16.9847 80.2613 16.882 79.832 16.882C79.412 16.882 79.0853 16.9707 78.852 17.148C78.628 17.3253 78.516 17.5587 78.516 17.848C78.516 18.128 78.6607 18.3473 78.95 18.506C79.2487 18.6647 79.65 18.8 80.154 18.912C80.5833 19.0053 80.9893 19.122 81.372 19.262C81.764 19.3927 82.0813 19.5933 82.324 19.864C82.576 20.1253 82.702 20.508 82.702 21.012C82.7113 21.6373 82.4733 22.1553 81.988 22.566C81.512 22.9673 80.8633 23.168 80.042 23.168Z" fill="white"/>
<g clip-path="url(#clip0_2027_67)">
<path d="M106.424 19.0007C106.557 18.8679 106.632 18.6878 106.632 18.5C106.632 18.3121 106.557 18.132 106.424 17.9992L102.417 13.9921C102.352 13.9245 102.274 13.8705 102.187 13.8334C102.101 13.7963 102.008 13.7767 101.914 13.7759C101.82 13.7751 101.726 13.793 101.639 13.8286C101.552 13.8642 101.473 13.9168 101.407 13.9833C101.34 14.0499 101.288 14.1289 101.252 14.216C101.216 14.303 101.198 14.3963 101.199 14.4904C101.2 14.5844 101.22 14.6774 101.257 14.7638C101.294 14.8502 101.348 14.9284 101.415 14.9937L104.213 17.7916H94.8329C94.6451 17.7916 94.4649 17.8663 94.3321 17.9991C94.1992 18.1319 94.1246 18.3121 94.1246 18.5C94.1246 18.6878 94.1992 18.868 94.3321 19.0008C94.4649 19.1337 94.6451 19.2083 94.8329 19.2083H104.213L101.415 22.0062C101.286 22.1398 101.215 22.3187 101.217 22.5044C101.218 22.6902 101.293 22.8678 101.424 22.9992C101.555 23.1305 101.733 23.205 101.919 23.2066C102.105 23.2082 102.283 23.1368 102.417 23.0078L106.424 19.0007Z" fill="white"/>
</g>
<defs>
<filter id="filter0_d_2027_67" x="0" y="0" width="124" height="44" filterUnits="userSpaceOnUse" color-interpolation-filters="sRGB">
<feFlood flood-opacity="0" result="BackgroundImageFix"/>
<feColorMatrix in="SourceAlpha" type="matrix" values="0 0 0 0 0 0 0 0 0 0 0 0 0 0 0 0 0 0 127 0" result="hardAlpha"/>
<feOffset dy="4"/>
<feGaussianBlur stdDeviation="2"/>
<feComposite in2="hardAlpha" operator="out"/>
<feColorMatrix type="matrix" values="0 0 0 0 0 0 0 0 0 0 0 0 0 0 0 0 0 0 0.25 0"/>
<feBlend mode="normal" in2="BackgroundImageFix" result="effect1_dropShadow_2027_67"/>
<feBlend mode="normal" in="SourceGraphic" in2="effect1_dropShadow_2027_67" result="shape"/>
</filter>
<clipPath id="clip0_2027_67">
<rect width="17" height="17" fill="white" transform="matrix(0 1 -1 0 109 10)"/>
</clipPath>
</defs>
</svg>
