<svg width="465" height="616" viewBox="0 0 465 616" fill="none" xmlns="http://www.w3.org/2000/svg">
<g filter="url(#filter0_d_279_67)">
<path d="M14 35C14 26.1635 21.1634 19 30 19H365C373.837 19 381 26.1634 381 35V522C381 530.837 373.837 538 365 538H30C21.1634 538 14 530.837 14 522V35Z" fill="white"/>
</g>
<rect x="53" y="50" width="289" height="315" rx="16" fill="#D9D9D9"/>
<path d="M104.55 431V403.4H110.31V425.8H122.23V431H104.55ZM131.424 431C127.104 431 124.944 428.88 124.944 424.64C124.944 420.4 127.104 418.28 131.424 418.28H136.944V415.96C136.944 415.107 136.517 414.68 135.664 414.68H127.184V411.68L129.584 409.88H135.984C140.304 409.88 142.464 412.04 142.464 416.36V431H131.424ZM130.464 424.92C130.464 425.773 130.89 426.2 131.744 426.2H136.944V422.52H131.744C130.89 422.52 130.464 422.947 130.464 423.8V424.92ZM147.896 424.52V409.88H153.416V424.92C153.416 425.773 153.842 426.2 154.696 426.2H160.536V409.88H166.056V431H154.376C150.056 431 147.896 428.84 147.896 424.52ZM171.646 431V412.6C172.632 410.787 174.526 409.88 177.326 409.88H181.646L184.046 411.68V414.68H178.806C178.006 414.68 177.459 414.88 177.166 415.28V431H171.646ZM187.658 424.52V416.36C187.658 412.04 189.818 409.88 194.138 409.88H199.338C203.658 409.88 205.818 412.04 205.818 416.36V422.48H193.178V424.92C193.178 425.773 193.604 426.2 194.458 426.2H205.018V429.2L202.618 431H194.138C189.818 431 187.658 428.84 187.658 424.52ZM193.178 418.24H200.298V415.96C200.298 415.107 199.871 414.68 199.018 414.68H194.458C193.604 414.68 193.178 415.107 193.178 415.96V418.24ZM211.259 431V409.88H222.939C227.259 409.88 229.419 412.04 229.419 416.36V431H223.899V415.96C223.899 415.107 223.472 414.68 222.619 414.68H216.779V431H211.259ZM245.018 431V403.4H251.898L259.658 419.96L267.418 403.4H274.298V431H268.538V413.56L262.058 427.4H257.258L250.778 413.56V431H245.018ZM280.198 431V425.28H286.158V431H280.198Z" fill="#F05226"/>
<path d="M122.264 464L116.346 457.158V464H113.838V448.71H116.346V455.684L122.286 448.71H125.432L118.788 456.366L125.542 464H122.264ZM128.772 464.154C128.318 464.154 127.936 464 127.628 463.692C127.32 463.384 127.166 463.003 127.166 462.548C127.166 462.093 127.32 461.712 127.628 461.404C127.936 461.096 128.318 460.942 128.772 460.942C129.212 460.942 129.586 461.096 129.894 461.404C130.202 461.712 130.356 462.093 130.356 462.548C130.356 463.003 130.202 463.384 129.894 463.692C129.586 464 129.212 464.154 128.772 464.154ZM141.251 456.146C142.072 456.293 142.769 456.725 143.341 457.444C143.913 458.163 144.199 458.977 144.199 459.886C144.199 460.663 143.994 461.367 143.583 461.998C143.187 462.614 142.608 463.105 141.845 463.472C141.082 463.824 140.195 464 139.183 464H133.067V448.71H138.897C139.938 448.71 140.833 448.886 141.581 449.238C142.329 449.59 142.894 450.067 143.275 450.668C143.656 451.255 143.847 451.915 143.847 452.648C143.847 453.528 143.612 454.261 143.143 454.848C142.674 455.435 142.043 455.867 141.251 456.146ZM135.575 455.134H138.677C139.498 455.134 140.136 454.951 140.591 454.584C141.06 454.203 141.295 453.66 141.295 452.956C141.295 452.267 141.06 451.731 140.591 451.35C140.136 450.954 139.498 450.756 138.677 450.756H135.575V455.134ZM138.963 461.954C139.814 461.954 140.481 461.749 140.965 461.338C141.449 460.927 141.691 460.355 141.691 459.622C141.691 458.874 141.434 458.28 140.921 457.84C140.408 457.4 139.726 457.18 138.875 457.18H135.575V461.954H138.963ZM147.936 464.154C147.482 464.154 147.1 464 146.792 463.692C146.484 463.384 146.33 463.003 146.33 462.548C146.33 462.093 146.484 461.712 146.792 461.404C147.1 461.096 147.482 460.942 147.936 460.942C148.376 460.942 148.75 461.096 149.058 461.404C149.366 461.712 149.52 462.093 149.52 462.548C149.52 463.003 149.366 463.384 149.058 463.692C148.75 464 148.376 464.154 147.936 464.154ZM160.454 450.734V455.222H165.734V457.268H160.454V461.954H166.394V464H157.946V448.688H166.394V450.734H160.454ZM175.599 451.68C176.552 451.68 177.403 451.878 178.151 452.274C178.914 452.67 179.508 453.257 179.933 454.034C180.358 454.811 180.571 455.75 180.571 456.85V464H178.085V457.224C178.085 456.139 177.814 455.31 177.271 454.738C176.728 454.151 175.988 453.858 175.049 453.858C174.11 453.858 173.362 454.151 172.805 454.738C172.262 455.31 171.991 456.139 171.991 457.224V464H169.483V451.878H171.991V453.264C172.402 452.765 172.922 452.377 173.553 452.098C174.198 451.819 174.88 451.68 175.599 451.68ZM186.696 453.924V460.634C186.696 461.089 186.799 461.419 187.004 461.624C187.224 461.815 187.591 461.91 188.104 461.91H189.644V464H187.664C186.535 464 185.669 463.736 185.068 463.208C184.467 462.68 184.166 461.822 184.166 460.634V453.924H182.736V451.878H184.166V448.864H186.696V451.878H189.644V453.924H186.696ZM203.066 457.642C203.066 458.097 203.036 458.507 202.978 458.874H193.716C193.789 459.842 194.148 460.619 194.794 461.206C195.439 461.793 196.231 462.086 197.17 462.086C198.519 462.086 199.472 461.521 200.03 460.392H202.736C202.369 461.507 201.702 462.423 200.734 463.142C199.78 463.846 198.592 464.198 197.17 464.198C196.011 464.198 194.97 463.941 194.046 463.428C193.136 462.9 192.418 462.167 191.89 461.228C191.376 460.275 191.12 459.175 191.12 457.928C191.12 456.681 191.369 455.589 191.868 454.65C192.381 453.697 193.092 452.963 194.002 452.45C194.926 451.937 195.982 451.68 197.17 451.68C198.314 451.68 199.333 451.929 200.228 452.428C201.122 452.927 201.819 453.631 202.318 454.54C202.816 455.435 203.066 456.469 203.066 457.642ZM200.448 456.85C200.433 455.926 200.103 455.185 199.458 454.628C198.812 454.071 198.013 453.792 197.06 453.792C196.194 453.792 195.454 454.071 194.838 454.628C194.222 455.171 193.855 455.911 193.738 456.85H200.448ZM208.042 453.638C208.408 453.022 208.892 452.545 209.494 452.208C210.11 451.856 210.836 451.68 211.672 451.68V454.276H211.034C210.051 454.276 209.303 454.525 208.79 455.024C208.291 455.523 208.042 456.388 208.042 457.62V464H205.534V451.878H208.042V453.638ZM216.485 453.66C216.91 453.103 217.49 452.633 218.223 452.252C218.956 451.871 219.785 451.68 220.709 451.68C221.765 451.68 222.726 451.944 223.591 452.472C224.471 452.985 225.16 453.711 225.659 454.65C226.158 455.589 226.407 456.667 226.407 457.884C226.407 459.101 226.158 460.194 225.659 461.162C225.16 462.115 224.471 462.863 223.591 463.406C222.726 463.934 221.765 464.198 220.709 464.198C219.785 464.198 218.964 464.015 218.245 463.648C217.526 463.267 216.94 462.797 216.485 462.24V469.764H213.977V451.878H216.485V453.66ZM223.855 457.884C223.855 457.048 223.679 456.329 223.327 455.728C222.99 455.112 222.535 454.65 221.963 454.342C221.406 454.019 220.804 453.858 220.159 453.858C219.528 453.858 218.927 454.019 218.355 454.342C217.798 454.665 217.343 455.134 216.991 455.75C216.654 456.366 216.485 457.092 216.485 457.928C216.485 458.764 216.654 459.497 216.991 460.128C217.343 460.744 217.798 461.213 218.355 461.536C218.927 461.859 219.528 462.02 220.159 462.02C220.804 462.02 221.406 461.859 221.963 461.536C222.535 461.199 222.99 460.715 223.327 460.084C223.679 459.453 223.855 458.72 223.855 457.884ZM231.395 453.638C231.762 453.022 232.246 452.545 232.847 452.208C233.463 451.856 234.189 451.68 235.025 451.68V454.276H234.387C233.405 454.276 232.657 454.525 232.143 455.024C231.645 455.523 231.395 456.388 231.395 457.62V464H228.887V451.878H231.395V453.638ZM238.607 450.272C238.152 450.272 237.771 450.118 237.463 449.81C237.155 449.502 237.001 449.121 237.001 448.666C237.001 448.211 237.155 447.83 237.463 447.522C237.771 447.214 238.152 447.06 238.607 447.06C239.047 447.06 239.421 447.214 239.729 447.522C240.037 447.83 240.191 448.211 240.191 448.666C240.191 449.121 240.037 449.502 239.729 449.81C239.421 450.118 239.047 450.272 238.607 450.272ZM239.839 451.878V464H237.331V451.878H239.839ZM247.531 464.198C246.578 464.198 245.72 464.029 244.957 463.692C244.209 463.34 243.615 462.871 243.175 462.284C242.735 461.683 242.501 461.015 242.471 460.282H245.067C245.111 460.795 245.353 461.228 245.793 461.58C246.248 461.917 246.813 462.086 247.487 462.086C248.191 462.086 248.734 461.954 249.115 461.69C249.511 461.411 249.709 461.059 249.709 460.634C249.709 460.179 249.489 459.842 249.049 459.622C248.624 459.402 247.942 459.16 247.003 458.896C246.094 458.647 245.353 458.405 244.781 458.17C244.209 457.935 243.711 457.576 243.285 457.092C242.875 456.608 242.669 455.97 242.669 455.178C242.669 454.533 242.86 453.946 243.241 453.418C243.623 452.875 244.165 452.45 244.869 452.142C245.588 451.834 246.409 451.68 247.333 451.68C248.712 451.68 249.819 452.032 250.655 452.736C251.506 453.425 251.961 454.371 252.019 455.574H249.511C249.467 455.031 249.247 454.599 248.851 454.276C248.455 453.953 247.92 453.792 247.245 453.792C246.585 453.792 246.079 453.917 245.727 454.166C245.375 454.415 245.199 454.745 245.199 455.156C245.199 455.479 245.317 455.75 245.551 455.97C245.786 456.19 246.072 456.366 246.409 456.498C246.747 456.615 247.245 456.769 247.905 456.96C248.785 457.195 249.504 457.437 250.061 457.686C250.633 457.921 251.125 458.273 251.535 458.742C251.946 459.211 252.159 459.835 252.173 460.612C252.173 461.301 251.983 461.917 251.601 462.46C251.22 463.003 250.677 463.428 249.973 463.736C249.284 464.044 248.47 464.198 247.531 464.198ZM265.993 457.642C265.993 458.097 265.964 458.507 265.905 458.874H256.643C256.717 459.842 257.076 460.619 257.721 461.206C258.367 461.793 259.159 462.086 260.097 462.086C261.447 462.086 262.4 461.521 262.957 460.392H265.663C265.297 461.507 264.629 462.423 263.661 463.142C262.708 463.846 261.52 464.198 260.097 464.198C258.939 464.198 257.897 463.941 256.973 463.428C256.064 462.9 255.345 462.167 254.817 461.228C254.304 460.275 254.047 459.175 254.047 457.928C254.047 456.681 254.297 455.589 254.795 454.65C255.309 453.697 256.02 452.963 256.929 452.45C257.853 451.937 258.909 451.68 260.097 451.68C261.241 451.68 262.261 451.929 263.155 452.428C264.05 452.927 264.747 453.631 265.245 454.54C265.744 455.435 265.993 456.469 265.993 457.642ZM263.375 456.85C263.361 455.926 263.031 455.185 262.385 454.628C261.74 454.071 260.941 453.792 259.987 453.792C259.122 453.792 258.381 454.071 257.765 454.628C257.149 455.171 256.783 455.911 256.665 456.85H263.375Z" fill="#222222"/>
<path d="M235 207.5L174.25 243.44V171.56L235 207.5Z" fill="#828282"/>
<defs>
<filter id="filter0_d_279_67" x="0.514149" y="0.286028" width="463.68" height="615.68" filterUnits="userSpaceOnUse" color-interpolation-filters="sRGB">
<feFlood flood-opacity="0" result="BackgroundImageFix"/>
<feColorMatrix in="SourceAlpha" type="matrix" values="0 0 0 0 0 0 0 0 0 0 0 0 0 0 0 0 0 0 127 0" result="hardAlpha"/>
<feOffset dx="34.8541" dy="29.626"/>
<feGaussianBlur stdDeviation="24.17"/>
<feComposite in2="hardAlpha" operator="out"/>
<feColorMatrix type="matrix" values="0 0 0 0 0.13333 0 0 0 0 0.13333 0 0 0 0 0.13333 0 0 0 0.1 0"/>
<feBlend mode="normal" in2="BackgroundImageFix" result="effect1_dropShadow_279_67"/>
<feBlend mode="normal" in="SourceGraphic" in2="effect1_dropShadow_279_67" result="shape"/>
</filter>
</defs>
</svg>
