<svg width="34" height="34" viewBox="0 0 34 34" fill="none" xmlns="http://www.w3.org/2000/svg">
<rect x="0.372192" width="32.796" height="33.4653" rx="12" fill="white"/>
<path d="M25.7121 11.2599C25.1732 11.4805 24.5264 11.7012 23.9875 11.8115C24.3108 11.8115 24.6342 11.2599 24.8498 11.0393C25.0654 10.7084 25.281 10.3774 25.3887 9.93618V9.82587H25.281C24.6342 10.1568 23.9875 10.4877 23.2329 10.5981C23.1252 10.5981 23.1252 10.5981 23.1252 10.5981C23.0174 10.4877 23.0174 10.4877 22.9096 10.3774C22.5862 10.1568 22.2628 9.93618 21.9395 9.71556C21.5083 9.49494 20.9694 9.38462 20.4304 9.49494C19.8915 9.49494 19.4603 9.71556 19.0291 9.93618C18.598 10.1568 18.1668 10.4877 17.8435 10.929C17.5201 11.3702 17.3045 11.8115 17.1967 12.363C17.0889 12.9146 17.0889 13.3558 17.1967 13.9074C17.1967 14.0177 17.1967 14.0177 17.0889 14.0177C14.2864 13.5765 11.915 12.5837 9.97481 10.3774C9.86702 10.2671 9.86702 10.2671 9.75923 10.3774C8.89691 11.7012 9.32807 13.6868 10.406 14.6796C10.5138 14.7899 10.7293 14.9002 10.8371 15.1208C10.7293 15.1208 10.0826 15.0105 9.43586 14.6796C9.32807 14.6796 9.32807 14.6796 9.32807 14.7899C9.32807 14.9002 9.32807 15.0105 9.32807 15.2311C9.43586 16.5549 10.406 17.7683 11.5917 18.2096C11.6994 18.3199 11.915 18.3199 12.0228 18.3199C11.6994 18.4302 11.4839 18.4302 10.7293 18.3199C10.6216 18.3199 10.6215 18.3199 10.6215 18.4302C11.1605 20.0849 12.454 20.5261 13.4241 20.857C13.5319 20.857 13.6397 20.857 13.8552 20.857C13.5319 21.2983 12.454 21.7395 11.915 21.8498C10.9449 22.1808 9.97481 22.2911 9.0047 22.1808C8.89691 22.1808 8.78912 22.1808 8.78912 22.1808V22.2911C9.0047 22.4014 9.22028 22.5117 9.43586 22.622C10.0826 22.953 10.7293 23.2839 11.3761 23.3942C14.9331 24.387 18.8136 23.6148 21.5083 20.9673C23.5563 18.8714 24.3108 16.0033 24.3108 13.0249C24.3108 12.9146 24.4186 12.8043 24.5264 12.8043C25.0654 12.363 25.4965 11.9218 25.9277 11.3702C25.7121 11.4805 25.7121 11.3702 25.7121 11.2599Z" fill="#F05226"/>
</svg>
